<svg xmlns="http://www.w3.org/2000/svg" xmlns:xlink="http://www.w3.org/1999/xlink" width="320" zoomAndPan="magnify" viewBox="0 0 240 231" height="308" preserveAspectRatio="xMidYMid meet" version="1.0"><defs><g/><clipPath id="c613603e33"><path d="M 0 6 L 239 6 L 239 230.25 L 0 230.25 Z M 0 6 " clip-rule="nonzero"/></clipPath></defs><g clip-path="url(#c613603e33)"><path fill="#000000" d="M 150.015625 145.078125 C 154.035156 144.957031 157.332031 146.109375 160.425781 149.21875 L 231.371094 220.523438 C 232.308594 221.480469 232.460938 222.589844 232.28125 223.355469 C 232.113281 224.140625 231.96875 224.097656 231.910156 224.097656 L 8.082031 224.097656 C 7.679688 224.097656 7.644531 224.050781 7.476562 223.914062 C 7.324219 223.757812 7.109375 223.4375 6.984375 222.945312 C 6.738281 221.972656 7.171875 220.722656 7.304688 220.585938 L 45.535156 184.183594 C 50.199219 179.734375 53.140625 177.101562 56.035156 175.65625 C 58.929688 174.191406 62.089844 173.636719 67.90625 173.636719 L 83.226562 173.636719 C 92.464844 173.636719 97.992188 171.835938 105.507812 167.492188 L 128.011719 154.5 C 130.398438 154.390625 132.800781 153.574219 134.679688 151.851562 C 135.328125 151.25 135.867188 150.496094 136.34375 149.699219 C 141.335938 146.816406 146.03125 145.199219 150.015625 145.078125 Z M 94.359375 105.449219 C 95.683594 105.4375 97.578125 105.867188 99.65625 106.960938 C 109.09375 111.902344 112.804688 115.011719 114.515625 118.355469 C 116.503906 122.1875 117.175781 129.855469 117.175781 143.738281 C 117.023438 147.050781 118.289062 149.992188 120.300781 151.851562 L 120.316406 151.851562 L 102.441406 162.164062 C 95.929688 165.921875 92.34375 167.246094 85.246094 167.445312 C 85.785156 166.335938 86.183594 165.121094 86.320312 163.78125 C 88.898438 144.417969 90.035156 129.589844 90.972656 110.613281 C 91.15625 106.871094 92.09375 106.039062 93.265625 105.636719 C 93.558594 105.53125 93.929688 105.46875 94.359375 105.449219 Z M 123.179688 30.40625 C 123.117188 32.625 122.65625 35.9375 122.242188 38.132812 C 120.363281 38.9375 118.425781 39.519531 116.792969 40.058594 C 118.269531 36.828125 119.289062 33.007812 120.023438 28.871094 C 120.378906 26.851562 123.257812 27.480469 123.179688 30.40625 Z M 128.632812 25.925781 L 135.882812 26.15625 C 133.835938 29.699219 131.539062 32.300781 128.988281 34.285156 C 129.109375 33.070312 129.246094 31.804688 129.308594 30.789062 C 129.433594 28.988281 129.183594 27.359375 128.632812 25.925781 Z M 147.074219 28.222656 C 141.6875 43.429688 132.480469 49.664062 121.058594 53.109375 C 115.777344 54.710938 110.757812 55.066406 104.679688 55.710938 C 103.089844 55.878906 101.890625 57.253906 101.9375 58.855469 L 102.90625 90.953125 C 102.953125 92.089844 103.613281 93.105469 104.632812 93.613281 C 116.148438 99.171875 123.679688 104.480469 127.382812 111.71875 C 131.726562 120.125 131.390625 129.710938 131.648438 143.90625 C 131.683594 145.371094 131.128906 146.460938 130.511719 147.292969 C 129.945312 148.097656 128.652344 148.386719 127.480469 148.386719 C 126.3125 148.386719 125.203125 147.972656 124.480469 147.292969 C 123.355469 145.957031 123.339844 145.125 123.308594 143.90625 C 123.082031 129.757812 123.0625 121.507812 119.984375 115.535156 C 117.335938 110.40625 112.285156 106.652344 102.527344 101.527344 C 98.875 99.621094 94.949219 98.539062 91.238281 99.847656 C 87.546875 101.15625 85.097656 105.128906 84.851562 110.300781 C 83.914062 129.21875 82.789062 143.796875 80.246094 163.027344 C 80.230469 163.074219 80.230469 163.101562 80.21875 163.132812 C 80.050781 164.847656 79.464844 165.613281 78.648438 166.183594 C 77.847656 166.738281 76.675781 166.996094 75.523438 166.859375 C 74.386719 166.707031 73.324219 166.136719 72.6875 165.394531 C 71.75 163.980469 71.796875 163.242188 71.96875 161.945312 C 77.910156 117.644531 78.617188 82.191406 74.828125 53.679688 C 74.488281 51.125 76.386719 48.9375 78.957031 48.9375 C 92.613281 48.9375 108.636719 48.9375 118.648438 45.90625 C 128.085938 43.058594 137.308594 38.042969 143.234375 25.292969 C 144.8125 21.90625 148.1875 25.0625 147.074219 28.222656 Z M 181.488281 14.566406 L 181.488281 21.335938 L 151.453125 20.523438 C 150.710938 19.613281 149.804688 18.863281 148.773438 18.355469 C 145.863281 16.9375 142.078125 17.613281 139.515625 20.140625 L 116.65625 19.398438 C 114.175781 19.324219 114.574219 16.167969 116.515625 16.121094 Z M 184.503906 6.28125 C 183.183594 6.3125 182.03125 7.175781 181.628906 8.421875 L 116.714844 9.964844 C 111.832031 10.085938 108.0625 13.996094 108.125 17.875 C 108.183594 21.292969 110.894531 24.507812 114.804688 25.324219 C 114.378906 26.15625 114.066406 27.066406 113.929688 28.066406 C 113.207031 33.589844 110.957031 38.519531 108.847656 41.582031 C 100.285156 42.644531 88.9375 42.8125 78.945312 42.8125 C 72.789062 42.8125 68.339844 49.261719 68.738281 54.484375 C 71.695312 93.691406 70.789062 129.972656 65.878906 161.058594 C 65.492188 163.410156 65.890625 165.660156 66.816406 167.519531 C 61.175781 167.601562 57.023438 168.277344 53.285156 170.15625 C 49.296875 172.15625 46.015625 175.25 41.304688 179.730469 L 3.074219 216.140625 C 0.691406 218.417969 0.320312 221.574219 1.03125 224.40625 C 1.386719 225.835938 2.058594 227.253906 3.261719 228.378906 C 4.449219 229.515625 6.21875 230.257812 8.082031 230.257812 L 231.914062 230.257812 C 235.25 230.257812 237.625 227.515625 238.273438 224.746094 C 238.902344 221.960938 238.179688 218.667969 235.746094 216.203125 L 164.800781 144.878906 C 160.597656 140.660156 155.285156 138.765625 149.839844 138.949219 C 145.878906 139.070312 141.847656 140.214844 137.800781 142.046875 C 137.8125 128.855469 137.8125 118.527344 132.855469 108.902344 C 128.421875 100.285156 119.96875 94.558594 109.007812 89.078125 L 108.160156 61.367188 C 113.042969 60.871094 117.785156 60.519531 122.863281 58.976562 C 135.472656 55.164062 146.851562 47.140625 152.871094 30.300781 C 153.304688 29.082031 153.488281 27.898438 153.5 26.753906 L 181.570312 27.496094 C 182.496094 31.128906 187.867188 30.265625 187.625 26.542969 L 187.625 9.390625 C 187.644531 7.671875 186.230469 6.25 184.503906 6.28125 Z M 184.503906 6.28125 " fill-opacity="1" fill-rule="nonzero"/></g><path fill="#000000" d="M 92.007812 9.390625 C 98.210938 11.746094 101.195312 18.457031 98.824219 24.523438 C 96.441406 30.589844 89.542969 33.605469 83.339844 31.25 C 77.164062 28.894531 74.175781 22.167969 76.550781 16.132812 C 78.933594 10.050781 85.8125 7.039062 92.007812 9.390625 Z M 94.175781 3.648438 C 84.921875 0.128906 74.421875 4.699219 70.800781 13.890625 L 70.835938 13.890625 C 67.230469 23.046875 71.878906 33.46875 81.148438 36.992188 C 90.429688 40.503906 100.929688 35.949219 104.550781 26.753906 C 108.136719 17.582031 103.476562 7.175781 94.175781 3.648438 Z M 94.175781 3.648438 " fill-opacity="1" fill-rule="evenodd"/><g fill="#000000" fill-opacity="1"><g transform="translate(80.560734, 215.57858)"><g><path d="M 8.546875 0 L 6.125 0 L 0.671875 -15.703125 L 2.640625 -15.703125 L 7.25 -2.3125 L 7.515625 -2.3125 L 12.078125 -15.703125 L 14.015625 -15.703125 Z M 8.546875 0 "/></g></g></g><g fill="#000000" fill-opacity="1"><g transform="translate(95.231956, 215.57858)"><g><path d="M 2.9375 -14.140625 C 2.570312 -14.140625 2.269531 -14.253906 2.03125 -14.484375 C 1.800781 -14.710938 1.6875 -15.007812 1.6875 -15.375 C 1.6875 -15.726562 1.800781 -16.019531 2.03125 -16.25 C 2.269531 -16.488281 2.570312 -16.609375 2.9375 -16.609375 C 3.3125 -16.609375 3.613281 -16.488281 3.84375 -16.25 C 4.082031 -16.019531 4.203125 -15.726562 4.203125 -15.375 C 4.203125 -15.007812 4.082031 -14.710938 3.84375 -14.484375 C 3.613281 -14.253906 3.3125 -14.140625 2.9375 -14.140625 Z M 2.0625 0 L 2.0625 -11.84375 L 3.8125 -11.84375 L 3.8125 0 Z M 2.0625 0 "/></g></g></g><g fill="#000000" fill-opacity="1"><g transform="translate(101.106895, 215.57858)"><g><path d="M 5.40625 0.21875 C 4.65625 0.21875 3.960938 0.125 3.328125 -0.0625 C 2.703125 -0.257812 2.171875 -0.53125 1.734375 -0.875 C 1.296875 -1.21875 0.988281 -1.609375 0.8125 -2.046875 L 1.84375 -3.109375 L 2.0625 -3.109375 C 2.445312 -2.523438 2.910156 -2.082031 3.453125 -1.78125 C 4.003906 -1.488281 4.65625 -1.34375 5.40625 -1.34375 C 6.28125 -1.34375 6.941406 -1.507812 7.390625 -1.84375 C 7.847656 -2.1875 8.078125 -2.664062 8.078125 -3.28125 C 8.078125 -3.738281 7.9375 -4.117188 7.65625 -4.421875 C 7.382812 -4.734375 6.941406 -4.960938 6.328125 -5.109375 L 4.328125 -5.609375 C 3.265625 -5.867188 2.484375 -6.273438 1.984375 -6.828125 C 1.492188 -7.390625 1.25 -8.082031 1.25 -8.90625 C 1.25 -9.550781 1.414062 -10.109375 1.75 -10.578125 C 2.082031 -11.054688 2.554688 -11.425781 3.171875 -11.6875 C 3.796875 -11.945312 4.53125 -12.078125 5.375 -12.078125 C 6.46875 -12.078125 7.328125 -11.921875 7.953125 -11.609375 C 8.578125 -11.304688 9.066406 -10.882812 9.421875 -10.34375 L 8.4375 -9.375 L 8.21875 -9.375 C 7.84375 -9.8125 7.429688 -10.125 6.984375 -10.3125 C 6.535156 -10.507812 6 -10.609375 5.375 -10.609375 C 4.601562 -10.609375 4.007812 -10.46875 3.59375 -10.1875 C 3.175781 -9.914062 2.96875 -9.515625 2.96875 -8.984375 C 2.96875 -8.503906 3.113281 -8.113281 3.40625 -7.8125 C 3.695312 -7.519531 4.207031 -7.285156 4.9375 -7.109375 L 6.90625 -6.640625 C 7.9375 -6.398438 8.679688 -5.992188 9.140625 -5.421875 C 9.597656 -4.859375 9.828125 -4.148438 9.828125 -3.296875 C 9.828125 -2.597656 9.660156 -1.984375 9.328125 -1.453125 C 9.003906 -0.929688 8.507812 -0.519531 7.84375 -0.21875 C 7.175781 0.0703125 6.363281 0.21875 5.40625 0.21875 Z M 5.40625 0.21875 "/></g></g></g><g fill="#000000" fill-opacity="1"><g transform="translate(112.06198, 215.57858)"><g><path d="M 2.9375 -14.140625 C 2.570312 -14.140625 2.269531 -14.253906 2.03125 -14.484375 C 1.800781 -14.710938 1.6875 -15.007812 1.6875 -15.375 C 1.6875 -15.726562 1.800781 -16.019531 2.03125 -16.25 C 2.269531 -16.488281 2.570312 -16.609375 2.9375 -16.609375 C 3.3125 -16.609375 3.613281 -16.488281 3.84375 -16.25 C 4.082031 -16.019531 4.203125 -15.726562 4.203125 -15.375 C 4.203125 -15.007812 4.082031 -14.710938 3.84375 -14.484375 C 3.613281 -14.253906 3.3125 -14.140625 2.9375 -14.140625 Z M 2.0625 0 L 2.0625 -11.84375 L 3.8125 -11.84375 L 3.8125 0 Z M 2.0625 0 "/></g></g></g><g fill="#000000" fill-opacity="1"><g transform="translate(117.936919, 215.57858)"><g><path d="M 6.796875 0.21875 C 5.679688 0.21875 4.707031 -0.015625 3.875 -0.484375 C 3.050781 -0.953125 2.414062 -1.644531 1.96875 -2.5625 C 1.519531 -3.488281 1.296875 -4.609375 1.296875 -5.921875 C 1.296875 -7.234375 1.519531 -8.347656 1.96875 -9.265625 C 2.414062 -10.191406 3.050781 -10.890625 3.875 -11.359375 C 4.707031 -11.835938 5.679688 -12.078125 6.796875 -12.078125 C 7.910156 -12.078125 8.878906 -11.835938 9.703125 -11.359375 C 10.535156 -10.890625 11.175781 -10.191406 11.625 -9.265625 C 12.070312 -8.347656 12.296875 -7.234375 12.296875 -5.921875 C 12.296875 -4.609375 12.070312 -3.488281 11.625 -2.5625 C 11.175781 -1.644531 10.535156 -0.953125 9.703125 -0.484375 C 8.878906 -0.015625 7.910156 0.21875 6.796875 0.21875 Z M 6.796875 -1.34375 C 7.984375 -1.34375 8.890625 -1.710938 9.515625 -2.453125 C 10.140625 -3.203125 10.453125 -4.359375 10.453125 -5.921875 C 10.453125 -7.484375 10.140625 -8.632812 9.515625 -9.375 C 8.890625 -10.125 7.984375 -10.5 6.796875 -10.5 C 5.617188 -10.5 4.710938 -10.125 4.078125 -9.375 C 3.453125 -8.632812 3.140625 -7.484375 3.140625 -5.921875 C 3.140625 -4.359375 3.453125 -3.203125 4.078125 -2.453125 C 4.710938 -1.710938 5.617188 -1.34375 6.796875 -1.34375 Z M 6.796875 -1.34375 "/></g></g></g><g fill="#000000" fill-opacity="1"><g transform="translate(131.534113, 215.57858)"><g><path d="M 2.0625 0 L 2.0625 -11.84375 L 3.734375 -11.84375 L 3.734375 -9.984375 L 3.953125 -9.9375 C 4.347656 -10.632812 4.847656 -11.164062 5.453125 -11.53125 C 6.066406 -11.894531 6.816406 -12.078125 7.703125 -12.078125 C 9.128906 -12.078125 10.160156 -11.710938 10.796875 -10.984375 C 11.441406 -10.253906 11.765625 -9.132812 11.765625 -7.625 L 11.765625 0 L 10.015625 0 L 10.015625 -7.578125 C 10.015625 -8.296875 9.921875 -8.867188 9.734375 -9.296875 C 9.554688 -9.734375 9.273438 -10.050781 8.890625 -10.25 C 8.503906 -10.445312 8 -10.546875 7.375 -10.546875 C 6.3125 -10.546875 5.453125 -10.191406 4.796875 -9.484375 C 4.140625 -8.785156 3.8125 -7.648438 3.8125 -6.078125 L 3.8125 0 Z M 2.0625 0 "/></g></g></g></svg>