<svg xmlns="http://www.w3.org/2000/svg" xmlns:xlink="http://www.w3.org/1999/xlink" width="328" zoomAndPan="magnify" viewBox="0 0 246 231" height="308" preserveAspectRatio="xMidYMid meet" version="1.0"><defs><g/></defs><path fill="#000000" d="M 207.796875 73.226562 C 207.554688 72.792969 207.242188 72.421875 206.859375 72.113281 C 206.472656 71.800781 206.042969 71.578125 205.570312 71.4375 C 205.09375 71.296875 204.613281 71.25 204.121094 71.300781 C 203.628906 71.347656 203.164062 71.488281 202.726562 71.722656 C 202.289062 71.953125 201.914062 72.257812 201.597656 72.640625 C 201.28125 73.019531 201.046875 73.445312 200.898438 73.917969 C 200.75 74.386719 200.695312 74.871094 200.734375 75.363281 C 200.773438 75.855469 200.90625 76.324219 201.132812 76.765625 C 235.835938 140.597656 187.074219 221.5625 114.324219 220.636719 C 112.71875 220.636719 111.113281 220.59375 109.511719 220.515625 C 107.90625 220.433594 106.308594 220.316406 104.710938 220.15625 C 103.113281 219.996094 101.523438 219.796875 99.933594 219.5625 C 98.347656 219.324219 96.765625 219.046875 95.191406 218.734375 C 93.617188 218.417969 92.054688 218.066406 90.496094 217.675781 C 88.941406 217.285156 87.394531 216.855469 85.859375 216.386719 C 84.324219 215.917969 82.800781 215.414062 81.289062 214.875 C 79.777344 214.332031 78.28125 213.753906 76.800781 213.136719 C 75.316406 212.523438 73.851562 211.871094 72.398438 211.183594 C 70.949219 210.496094 69.515625 209.773438 68.101562 209.015625 C 66.6875 208.257812 65.289062 207.464844 63.914062 206.640625 C 62.539062 205.8125 61.183594 204.957031 59.847656 204.0625 C 58.515625 203.171875 57.203125 202.246094 55.914062 201.289062 C 54.625 200.332031 53.359375 199.34375 52.121094 198.324219 C 50.878906 197.304688 49.664062 196.257812 48.476562 195.179688 C 47.285156 194.101562 46.125 192.992188 44.988281 191.859375 C 43.855469 190.722656 42.746094 189.558594 41.667969 188.371094 C 40.59375 187.179688 39.542969 185.964844 38.527344 184.722656 C 37.507812 183.480469 36.519531 182.21875 35.5625 180.925781 C 34.605469 179.636719 33.683594 178.324219 32.789062 176.992188 C 31.898438 175.65625 31.039062 174.300781 30.214844 172.921875 C 29.390625 171.546875 28.597656 170.148438 27.839844 168.734375 C 27.082031 167.316406 26.359375 165.882812 25.675781 164.433594 C 24.988281 162.980469 24.335938 161.511719 23.722656 160.03125 C 23.105469 158.546875 22.527344 157.050781 21.984375 155.539062 C 21.445312 154.027344 20.941406 152.503906 20.472656 150.964844 C 20.007812 149.429688 19.578125 147.882812 19.1875 146.324219 C 18.792969 144.769531 18.441406 143.203125 18.128906 141.628906 C 17.8125 140.050781 17.539062 138.472656 17.300781 136.882812 C 17.0625 135.292969 16.867188 133.703125 16.707031 132.105469 C 16.546875 130.503906 16.429688 128.90625 16.347656 127.300781 C 16.265625 125.695312 16.226562 124.09375 16.222656 122.488281 C 15.316406 49.695312 96.214844 0.90625 160.023438 35.632812 C 160.464844 35.871094 160.933594 36.011719 161.433594 36.058594 C 161.929688 36.105469 162.417969 36.054688 162.898438 35.910156 C 163.375 35.761719 163.808594 35.527344 164.191406 35.210938 C 164.578125 34.890625 164.890625 34.511719 165.125 34.070312 C 165.359375 33.625 165.5 33.15625 165.546875 32.65625 C 165.59375 32.160156 165.542969 31.671875 165.398438 31.191406 C 165.25 30.714844 165.019531 30.28125 164.699219 29.894531 C 164.382812 29.507812 164 29.199219 163.558594 28.964844 C 161.792969 28.035156 160 27.152344 158.1875 26.324219 C 156.371094 25.496094 154.53125 24.71875 152.671875 23.992188 C 150.8125 23.269531 148.933594 22.597656 147.035156 21.980469 C 145.136719 21.359375 143.222656 20.796875 141.292969 20.285156 C 139.363281 19.777344 137.421875 19.320312 135.464844 18.921875 C 133.511719 18.523438 131.546875 18.179688 129.570312 17.890625 C 127.597656 17.601562 125.613281 17.371094 123.625 17.195312 C 121.636719 17.019531 119.644531 16.898438 117.652344 16.835938 C 115.65625 16.773438 113.660156 16.765625 111.667969 16.816406 C 109.671875 16.867188 107.679688 16.972656 105.6875 17.136719 C 103.699219 17.300781 101.71875 17.519531 99.738281 17.796875 C 97.761719 18.070312 95.796875 18.402344 93.839844 18.789062 C 91.878906 19.175781 89.933594 19.621094 88 20.117188 C 86.070312 20.613281 84.152344 21.167969 82.25 21.773438 C 80.347656 22.378906 78.464844 23.039062 76.601562 23.753906 C 74.734375 24.464844 72.894531 25.230469 71.070312 26.046875 C 69.25 26.867188 67.453125 27.734375 65.683594 28.652344 C 63.910156 29.574219 62.167969 30.542969 60.449219 31.558594 C 58.734375 32.578125 57.046875 33.644531 55.390625 34.757812 C 53.734375 35.871094 52.109375 37.03125 50.519531 38.238281 C 48.929688 39.445312 47.371094 40.695312 45.851562 41.988281 C 44.332031 43.285156 42.851562 44.621094 41.40625 46 C 39.960938 47.375 38.558594 48.796875 37.195312 50.253906 C 35.832031 51.710938 34.507812 53.207031 33.230469 54.738281 C 31.949219 56.273438 30.714844 57.839844 29.523438 59.441406 C 28.335938 61.046875 27.191406 62.679688 26.09375 64.347656 C 24.996094 66.015625 23.945312 67.714844 22.945312 69.441406 C 21.941406 71.167969 20.988281 72.921875 20.085938 74.703125 C 19.183594 76.484375 18.335938 78.292969 17.535156 80.121094 C 16.734375 81.949219 15.988281 83.800781 15.292969 85.671875 C 14.597656 87.546875 13.957031 89.4375 13.367188 91.34375 C 12.777344 93.253906 12.246094 95.175781 11.765625 97.113281 C 11.289062 99.054688 10.863281 101.003906 10.496094 102.964844 C 10.125 104.929688 9.8125 106.902344 9.554688 108.878906 C 9.300781 110.859375 9.097656 112.847656 8.953125 114.839844 C 8.808594 116.832031 8.722656 118.824219 8.691406 120.820312 C 8.660156 122.820312 8.683594 124.816406 8.765625 126.808594 C 8.847656 128.804688 8.984375 130.796875 9.179688 132.785156 C 9.375 134.773438 9.625 136.75 9.933594 138.726562 C 10.238281 140.699219 10.601562 142.660156 11.019531 144.613281 C 11.4375 146.566406 11.910156 148.507812 12.4375 150.433594 C 12.964844 152.359375 13.546875 154.269531 14.183594 156.160156 C 14.816406 158.054688 15.507812 159.925781 16.25 161.78125 C 16.992188 163.632812 17.785156 165.464844 18.628906 167.273438 C 19.476562 169.082031 20.371094 170.867188 21.320312 172.625 C 22.265625 174.382812 23.261719 176.113281 24.304688 177.816406 C 25.351562 179.515625 26.441406 181.1875 27.582031 182.828125 C 28.722656 184.464844 29.90625 186.070312 31.136719 187.644531 C 32.367188 189.21875 33.640625 190.753906 34.957031 192.253906 C 36.277344 193.753906 37.632812 195.214844 39.035156 196.640625 C 40.433594 198.0625 41.875 199.445312 43.351562 200.785156 C 44.832031 202.128906 46.347656 203.425781 47.898438 204.679688 C 49.449219 205.9375 51.035156 207.148438 52.65625 208.3125 C 54.277344 209.480469 55.929688 210.597656 57.613281 211.667969 C 59.296875 212.742188 61.011719 213.765625 62.753906 214.738281 C 64.496094 215.714844 66.265625 216.640625 68.058594 217.515625 C 69.851562 218.386719 71.671875 219.210938 73.511719 219.984375 C 75.351562 220.753906 77.214844 221.472656 79.09375 222.140625 C 80.976562 222.804688 82.875 223.417969 84.792969 223.976562 C 86.707031 224.535156 88.640625 225.035156 90.585938 225.484375 C 92.527344 225.933594 94.484375 226.328125 96.453125 226.664062 C 98.417969 227.003906 100.394531 227.285156 102.378906 227.511719 C 104.359375 227.738281 106.347656 227.90625 108.339844 228.019531 C 110.332031 228.132812 112.328125 228.1875 114.324219 228.1875 C 192.683594 229.167969 245.195312 141.984375 207.796875 73.226562 Z M 207.796875 73.226562 " fill-opacity="1" fill-rule="nonzero"/><path fill="#000000" d="M 114.324219 92.285156 C 117.613281 92.285156 120.8125 92.820312 123.925781 93.890625 C 124.398438 94.054688 124.882812 94.121094 125.382812 94.089844 C 125.882812 94.058594 126.355469 93.933594 126.804688 93.714844 C 127.257812 93.496094 127.648438 93.199219 127.976562 92.824219 C 128.308594 92.449219 128.558594 92.023438 128.71875 91.550781 C 130.378906 84.875 118.625 85.140625 114.324219 84.734375 C 64.277344 86.804688 64.277344 158.171875 114.324219 160.238281 C 115.558594 160.234375 116.792969 160.175781 118.019531 160.050781 C 119.25 159.929688 120.472656 159.746094 121.683594 159.503906 C 122.894531 159.261719 124.089844 158.960938 125.273438 158.601562 C 126.453125 158.242188 127.617188 157.828125 128.757812 157.351562 C 129.898438 156.878906 131.011719 156.351562 132.101562 155.765625 C 133.191406 155.183594 134.25 154.550781 135.277344 153.863281 C 136.304688 153.175781 137.292969 152.441406 138.25 151.65625 C 139.203125 150.871094 140.117188 150.042969 140.992188 149.167969 C 141.867188 148.292969 142.695312 147.378906 143.476562 146.425781 C 144.261719 145.46875 144.996094 144.476562 145.683594 143.449219 C 146.371094 142.421875 147.003906 141.363281 147.585938 140.273438 C 148.171875 139.183594 148.699219 138.066406 149.171875 136.925781 C 149.644531 135.785156 150.0625 134.621094 150.421875 133.441406 C 150.78125 132.257812 151.082031 131.058594 151.324219 129.847656 C 151.566406 128.636719 151.746094 127.414062 151.871094 126.183594 C 151.992188 124.957031 152.054688 123.722656 152.054688 122.488281 C 151.667969 118.105469 151.925781 106.46875 145.28125 108.121094 C 144.804688 108.285156 144.382812 108.53125 144.007812 108.863281 C 143.632812 109.195312 143.335938 109.585938 143.117188 110.035156 C 142.898438 110.484375 142.773438 110.960938 142.742188 111.460938 C 142.710938 111.960938 142.777344 112.445312 142.941406 112.917969 C 144 116.019531 144.519531 119.210938 144.507812 122.488281 C 142.996094 162.488281 85.652344 162.492188 84.140625 122.484375 C 84.140625 121.496094 84.191406 120.511719 84.289062 119.527344 C 84.386719 118.542969 84.53125 117.566406 84.726562 116.597656 C 84.917969 115.628906 85.160156 114.667969 85.445312 113.722656 C 85.734375 112.777344 86.066406 111.847656 86.445312 110.933594 C 86.824219 110.019531 87.246094 109.128906 87.714844 108.257812 C 88.179688 107.382812 88.6875 106.539062 89.238281 105.714844 C 89.785156 104.894531 90.375 104.101562 91 103.335938 C 91.628906 102.570312 92.292969 101.839844 92.992188 101.140625 C 93.691406 100.441406 94.421875 99.777344 95.183594 99.152344 C 95.949219 98.523438 96.742188 97.933594 97.5625 97.386719 C 98.382812 96.835938 99.230469 96.328125 100.101562 95.863281 C 100.972656 95.394531 101.867188 94.972656 102.777344 94.59375 C 103.691406 94.214844 104.621094 93.882812 105.566406 93.59375 C 106.511719 93.304688 107.46875 93.066406 108.4375 92.871094 C 109.40625 92.679688 110.382812 92.53125 111.367188 92.433594 C 112.351562 92.335938 113.335938 92.285156 114.324219 92.285156 Z M 114.324219 92.285156 " fill-opacity="1" fill-rule="nonzero"/><path fill="#000000" d="M 150.449219 64.859375 C 150.691406 64.421875 150.84375 63.953125 150.898438 63.457031 C 150.957031 62.957031 150.914062 62.46875 150.777344 61.988281 C 150.640625 61.507812 150.414062 61.070312 150.105469 60.679688 C 149.792969 60.289062 149.417969 59.96875 148.980469 59.726562 C 143.675781 56.789062 138.089844 54.5625 132.222656 53.042969 C 126.351562 51.523438 120.386719 50.761719 114.324219 50.757812 C 19.234375 54.691406 19.234375 190.28125 114.324219 194.214844 C 115.875 194.214844 117.425781 194.164062 118.972656 194.066406 C 120.519531 193.964844 122.0625 193.816406 123.597656 193.617188 C 125.136719 193.414062 126.667969 193.167969 128.1875 192.867188 C 129.710938 192.566406 131.21875 192.21875 132.71875 191.820312 C 134.21875 191.425781 135.703125 190.980469 137.171875 190.484375 C 138.640625 189.992188 140.09375 189.449219 141.527344 188.863281 C 142.964844 188.273438 144.378906 187.640625 145.773438 186.960938 C 147.164062 186.28125 148.535156 185.554688 149.882812 184.785156 C 151.230469 184.015625 152.550781 183.203125 153.84375 182.351562 C 155.136719 181.496094 156.402344 180.597656 157.636719 179.664062 C 158.875 178.726562 160.078125 177.75 161.25 176.734375 C 162.421875 175.71875 163.5625 174.667969 164.664062 173.578125 C 165.769531 172.488281 166.835938 171.363281 167.867188 170.207031 C 168.898438 169.046875 169.894531 167.855469 170.847656 166.632812 C 171.800781 165.410156 172.714844 164.15625 173.585938 162.875 C 174.460938 161.59375 175.289062 160.285156 176.078125 158.949219 C 176.867188 157.609375 177.609375 156.25 178.308594 154.867188 C 179.007812 153.480469 179.660156 152.074219 180.269531 150.648438 C 180.878906 149.222656 181.441406 147.777344 181.953125 146.3125 C 182.46875 144.847656 182.933594 143.371094 183.355469 141.875 C 183.773438 140.382812 184.140625 138.875 184.460938 137.359375 C 184.785156 135.839844 185.054688 134.3125 185.277344 132.777344 C 185.5 131.242188 185.667969 129.703125 185.792969 128.15625 C 185.914062 126.609375 185.984375 125.058594 186.007812 123.507812 C 186.027344 121.957031 186 120.40625 185.917969 118.859375 C 185.839844 117.308594 185.710938 115.761719 185.53125 114.222656 C 185.351562 112.679688 185.121094 111.148438 184.839844 109.621094 C 184.5625 108.09375 184.234375 106.582031 183.855469 105.074219 C 183.480469 103.570312 183.054688 102.078125 182.578125 100.601562 C 182.105469 99.125 181.582031 97.664062 181.015625 96.222656 C 180.445312 94.777344 179.828125 93.355469 179.167969 91.953125 C 178.507812 90.550781 177.800781 89.167969 177.050781 87.8125 C 176.808594 87.371094 176.492188 86.996094 176.101562 86.683594 C 175.707031 86.367188 175.273438 86.140625 174.789062 86.003906 C 174.308594 85.863281 173.816406 85.820312 173.320312 85.878906 C 172.820312 85.933594 172.351562 86.085938 171.914062 86.328125 C 171.476562 86.570312 171.101562 86.890625 170.789062 87.28125 C 170.476562 87.675781 170.25 88.113281 170.113281 88.597656 C 169.976562 89.078125 169.9375 89.570312 169.996094 90.066406 C 170.054688 90.566406 170.207031 91.035156 170.449219 91.472656 C 194.367188 132.972656 162.238281 187.496094 114.324219 186.664062 C 113.273438 186.660156 112.226562 186.632812 111.175781 186.582031 C 110.128906 186.527344 109.082031 186.449219 108.039062 186.347656 C 106.996094 186.242188 105.953125 186.113281 104.914062 185.957031 C 103.878906 185.804688 102.84375 185.625 101.816406 185.417969 C 100.785156 185.210938 99.761719 184.980469 98.746094 184.726562 C 97.726562 184.46875 96.714844 184.1875 95.710938 183.882812 C 94.707031 183.578125 93.710938 183.246094 92.722656 182.894531 C 91.734375 182.539062 90.757812 182.160156 89.789062 181.757812 C 88.820312 181.355469 87.859375 180.929688 86.910156 180.480469 C 85.964844 180.03125 85.027344 179.558594 84.101562 179.0625 C 83.175781 178.566406 82.261719 178.050781 81.363281 177.511719 C 80.464844 176.96875 79.578125 176.410156 78.703125 175.824219 C 77.832031 175.242188 76.976562 174.636719 76.132812 174.011719 C 75.289062 173.386719 74.460938 172.738281 73.652344 172.074219 C 72.839844 171.40625 72.046875 170.722656 71.269531 170.015625 C 70.492188 169.3125 69.730469 168.585938 68.988281 167.84375 C 68.246094 167.101562 67.523438 166.34375 66.820312 165.5625 C 66.113281 164.785156 65.429688 163.992188 64.761719 163.179688 C 64.097656 162.367188 63.453125 161.542969 62.828125 160.699219 C 62.199219 159.855469 61.597656 158.996094 61.011719 158.125 C 60.429688 157.25 59.867188 156.363281 59.328125 155.464844 C 58.789062 154.5625 58.273438 153.652344 57.777344 152.726562 C 57.28125 151.800781 56.808594 150.863281 56.359375 149.914062 C 55.910156 148.964844 55.484375 148.003906 55.082031 147.035156 C 54.679688 146.066406 54.304688 145.085938 53.949219 144.097656 C 53.59375 143.109375 53.265625 142.113281 52.960938 141.109375 C 52.65625 140.101562 52.375 139.089844 52.117188 138.074219 C 51.863281 137.054688 51.632812 136.03125 51.425781 135 C 51.21875 133.972656 51.039062 132.9375 50.886719 131.898438 C 50.730469 130.859375 50.601562 129.820312 50.496094 128.773438 C 50.394531 127.730469 50.316406 126.683594 50.261719 125.632812 C 50.210938 124.585938 50.183594 123.535156 50.183594 122.488281 C 49.359375 74.546875 103.839844 42.398438 145.320312 66.332031 C 145.757812 66.574219 146.226562 66.726562 146.722656 66.78125 C 147.222656 66.839844 147.710938 66.796875 148.191406 66.660156 C 148.671875 66.523438 149.109375 66.296875 149.5 65.984375 C 149.890625 65.671875 150.207031 65.296875 150.449219 64.859375 Z M 150.449219 64.859375 " fill-opacity="1" fill-rule="nonzero"/><path fill="#000000" d="M 213.027344 50.417969 L 185.558594 77.902344 C 184.828125 78.625 183.945312 78.988281 182.917969 78.996094 L 182.617188 78.996094 L 164.542969 77.601562 L 117.003906 125.167969 C 116.644531 125.507812 116.234375 125.769531 115.773438 125.953125 C 115.316406 126.136719 114.835938 126.222656 114.339844 126.21875 C 113.847656 126.210938 113.371094 126.113281 112.914062 125.921875 C 112.457031 125.726562 112.054688 125.457031 111.703125 125.105469 C 111.355469 124.757812 111.082031 124.351562 110.890625 123.894531 C 110.699219 123.441406 110.601562 122.964844 110.59375 122.46875 C 110.589844 121.972656 110.675781 121.496094 110.859375 121.035156 C 111.042969 120.574219 111.304688 120.164062 111.644531 119.804688 L 159.1875 72.238281 L 157.789062 54.15625 C 157.753906 53.609375 157.832031 53.082031 158.023438 52.566406 C 158.210938 52.054688 158.5 51.601562 158.882812 51.210938 L 186.351562 23.730469 C 186.878906 23.21875 187.5 22.882812 188.21875 22.730469 C 188.9375 22.578125 189.640625 22.628906 190.328125 22.882812 C 191.015625 23.136719 191.585938 23.554688 192.03125 24.136719 C 192.480469 24.71875 192.738281 25.375 192.804688 26.109375 L 194.050781 42.71875 L 210.652344 43.964844 C 211.382812 44.03125 212.039062 44.289062 212.621094 44.738281 C 213.203125 45.183594 213.621094 45.753906 213.875 46.441406 C 214.128906 47.132812 214.179688 47.835938 214.027344 48.554688 C 213.871094 49.273438 213.539062 49.894531 213.027344 50.417969 Z M 213.027344 50.417969 " fill-opacity="1" fill-rule="nonzero"/><g fill="#000000" fill-opacity="1"><g transform="translate(79.098812, 212.038228)"><g><path d="M 1.875 0 L 1.875 -10.765625 L 3.390625 -10.765625 L 3.390625 -9.1875 L 3.59375 -9.140625 C 3.957031 -9.742188 4.394531 -10.203125 4.90625 -10.515625 C 5.425781 -10.828125 6.050781 -10.984375 6.78125 -10.984375 C 7.613281 -10.984375 8.253906 -10.820312 8.703125 -10.5 C 9.160156 -10.1875 9.519531 -9.675781 9.78125 -8.96875 L 9.984375 -8.96875 C 10.347656 -9.632812 10.800781 -10.132812 11.34375 -10.46875 C 11.894531 -10.8125 12.566406 -10.984375 13.359375 -10.984375 C 14.460938 -10.984375 15.285156 -10.679688 15.828125 -10.078125 C 16.378906 -9.484375 16.65625 -8.570312 16.65625 -7.34375 L 16.65625 0 L 15.0625 0 L 15.0625 -7.3125 C 15.0625 -8.09375 14.894531 -8.664062 14.5625 -9.03125 C 14.238281 -9.40625 13.710938 -9.59375 12.984375 -9.59375 C 12.117188 -9.59375 11.414062 -9.28125 10.875 -8.65625 C 10.332031 -8.03125 10.0625 -7 10.0625 -5.5625 L 10.0625 0 L 8.46875 0 L 8.46875 -7.3125 C 8.46875 -8.09375 8.300781 -8.664062 7.96875 -9.03125 C 7.644531 -9.40625 7.117188 -9.59375 6.390625 -9.59375 C 5.523438 -9.59375 4.820312 -9.289062 4.28125 -8.6875 C 3.738281 -8.082031 3.46875 -7.097656 3.46875 -5.734375 L 3.46875 0 Z M 1.875 0 "/></g></g></g><g fill="#000000" fill-opacity="1"><g transform="translate(97.451014, 212.038228)"><g><path d="M 2.671875 -12.859375 C 2.335938 -12.859375 2.0625 -12.960938 1.84375 -13.171875 C 1.632812 -13.378906 1.53125 -13.644531 1.53125 -13.96875 C 1.53125 -14.300781 1.632812 -14.570312 1.84375 -14.78125 C 2.0625 -14.988281 2.335938 -15.09375 2.671875 -15.09375 C 3.015625 -15.09375 3.289062 -14.988281 3.5 -14.78125 C 3.707031 -14.570312 3.8125 -14.300781 3.8125 -13.96875 C 3.8125 -13.644531 3.707031 -13.378906 3.5 -13.171875 C 3.289062 -12.960938 3.015625 -12.859375 2.671875 -12.859375 Z M 1.875 0 L 1.875 -10.765625 L 3.46875 -10.765625 L 3.46875 0 Z M 1.875 0 "/></g></g></g><g fill="#000000" fill-opacity="1"><g transform="translate(102.790724, 212.038228)"><g><path d="M 4.90625 0.203125 C 4.226562 0.203125 3.601562 0.113281 3.03125 -0.0625 C 2.457031 -0.238281 1.972656 -0.484375 1.578125 -0.796875 C 1.179688 -1.109375 0.898438 -1.460938 0.734375 -1.859375 L 1.671875 -2.828125 L 1.875 -2.828125 C 2.226562 -2.296875 2.648438 -1.894531 3.140625 -1.625 C 3.640625 -1.351562 4.226562 -1.21875 4.90625 -1.21875 C 5.707031 -1.21875 6.3125 -1.375 6.71875 -1.6875 C 7.132812 -2 7.34375 -2.429688 7.34375 -2.984375 C 7.34375 -3.398438 7.21875 -3.742188 6.96875 -4.015625 C 6.71875 -4.296875 6.3125 -4.507812 5.75 -4.65625 L 3.9375 -5.09375 C 2.96875 -5.332031 2.257812 -5.703125 1.8125 -6.203125 C 1.363281 -6.710938 1.140625 -7.34375 1.140625 -8.09375 C 1.140625 -8.675781 1.289062 -9.1875 1.59375 -9.625 C 1.894531 -10.0625 2.328125 -10.394531 2.890625 -10.625 C 3.453125 -10.863281 4.117188 -10.984375 4.890625 -10.984375 C 5.878906 -10.984375 6.660156 -10.84375 7.234375 -10.5625 C 7.804688 -10.28125 8.25 -9.894531 8.5625 -9.40625 L 7.671875 -8.53125 L 7.46875 -8.53125 C 7.125 -8.925781 6.75 -9.210938 6.34375 -9.390625 C 5.9375 -9.566406 5.453125 -9.65625 4.890625 -9.65625 C 4.179688 -9.65625 3.640625 -9.523438 3.265625 -9.265625 C 2.890625 -9.015625 2.703125 -8.648438 2.703125 -8.171875 C 2.703125 -7.734375 2.832031 -7.378906 3.09375 -7.109375 C 3.363281 -6.835938 3.832031 -6.625 4.5 -6.46875 L 6.28125 -6.03125 C 7.21875 -5.8125 7.894531 -5.441406 8.3125 -4.921875 C 8.726562 -4.410156 8.9375 -3.769531 8.9375 -3 C 8.9375 -2.363281 8.785156 -1.804688 8.484375 -1.328125 C 8.179688 -0.847656 7.726562 -0.472656 7.125 -0.203125 C 6.519531 0.0664062 5.78125 0.203125 4.90625 0.203125 Z M 4.90625 0.203125 "/></g></g></g><g fill="#000000" fill-opacity="1"><g transform="translate(112.74777, 212.038228)"><g><path d="M 4.90625 0.203125 C 4.226562 0.203125 3.601562 0.113281 3.03125 -0.0625 C 2.457031 -0.238281 1.972656 -0.484375 1.578125 -0.796875 C 1.179688 -1.109375 0.898438 -1.460938 0.734375 -1.859375 L 1.671875 -2.828125 L 1.875 -2.828125 C 2.226562 -2.296875 2.648438 -1.894531 3.140625 -1.625 C 3.640625 -1.351562 4.226562 -1.21875 4.90625 -1.21875 C 5.707031 -1.21875 6.3125 -1.375 6.71875 -1.6875 C 7.132812 -2 7.34375 -2.429688 7.34375 -2.984375 C 7.34375 -3.398438 7.21875 -3.742188 6.96875 -4.015625 C 6.71875 -4.296875 6.3125 -4.507812 5.75 -4.65625 L 3.9375 -5.09375 C 2.96875 -5.332031 2.257812 -5.703125 1.8125 -6.203125 C 1.363281 -6.710938 1.140625 -7.34375 1.140625 -8.09375 C 1.140625 -8.675781 1.289062 -9.1875 1.59375 -9.625 C 1.894531 -10.0625 2.328125 -10.394531 2.890625 -10.625 C 3.453125 -10.863281 4.117188 -10.984375 4.890625 -10.984375 C 5.878906 -10.984375 6.660156 -10.84375 7.234375 -10.5625 C 7.804688 -10.28125 8.25 -9.894531 8.5625 -9.40625 L 7.671875 -8.53125 L 7.46875 -8.53125 C 7.125 -8.925781 6.75 -9.210938 6.34375 -9.390625 C 5.9375 -9.566406 5.453125 -9.65625 4.890625 -9.65625 C 4.179688 -9.65625 3.640625 -9.523438 3.265625 -9.265625 C 2.890625 -9.015625 2.703125 -8.648438 2.703125 -8.171875 C 2.703125 -7.734375 2.832031 -7.378906 3.09375 -7.109375 C 3.363281 -6.835938 3.832031 -6.625 4.5 -6.46875 L 6.28125 -6.03125 C 7.21875 -5.8125 7.894531 -5.441406 8.3125 -4.921875 C 8.726562 -4.410156 8.9375 -3.769531 8.9375 -3 C 8.9375 -2.363281 8.785156 -1.804688 8.484375 -1.328125 C 8.179688 -0.847656 7.726562 -0.472656 7.125 -0.203125 C 6.519531 0.0664062 5.78125 0.203125 4.90625 0.203125 Z M 4.90625 0.203125 "/></g></g></g><g fill="#000000" fill-opacity="1"><g transform="translate(122.704816, 212.038228)"><g><path d="M 2.671875 -12.859375 C 2.335938 -12.859375 2.0625 -12.960938 1.84375 -13.171875 C 1.632812 -13.378906 1.53125 -13.644531 1.53125 -13.96875 C 1.53125 -14.300781 1.632812 -14.570312 1.84375 -14.78125 C 2.0625 -14.988281 2.335938 -15.09375 2.671875 -15.09375 C 3.015625 -15.09375 3.289062 -14.988281 3.5 -14.78125 C 3.707031 -14.570312 3.8125 -14.300781 3.8125 -13.96875 C 3.8125 -13.644531 3.707031 -13.378906 3.5 -13.171875 C 3.289062 -12.960938 3.015625 -12.859375 2.671875 -12.859375 Z M 1.875 0 L 1.875 -10.765625 L 3.46875 -10.765625 L 3.46875 0 Z M 1.875 0 "/></g></g></g><g fill="#000000" fill-opacity="1"><g transform="translate(128.044526, 212.038228)"><g><path d="M 6.1875 0.203125 C 5.164062 0.203125 4.28125 -0.0078125 3.53125 -0.4375 C 2.78125 -0.863281 2.203125 -1.492188 1.796875 -2.328125 C 1.390625 -3.171875 1.1875 -4.1875 1.1875 -5.375 C 1.1875 -6.570312 1.390625 -7.585938 1.796875 -8.421875 C 2.203125 -9.265625 2.78125 -9.898438 3.53125 -10.328125 C 4.28125 -10.765625 5.164062 -10.984375 6.1875 -10.984375 C 7.195312 -10.984375 8.078125 -10.765625 8.828125 -10.328125 C 9.585938 -9.898438 10.171875 -9.265625 10.578125 -8.421875 C 10.984375 -7.585938 11.1875 -6.570312 11.1875 -5.375 C 11.1875 -4.1875 10.984375 -3.171875 10.578125 -2.328125 C 10.171875 -1.492188 9.585938 -0.863281 8.828125 -0.4375 C 8.078125 -0.0078125 7.195312 0.203125 6.1875 0.203125 Z M 6.1875 -1.21875 C 7.257812 -1.21875 8.078125 -1.554688 8.640625 -2.234375 C 9.210938 -2.910156 9.5 -3.957031 9.5 -5.375 C 9.5 -6.800781 9.210938 -7.851562 8.640625 -8.53125 C 8.078125 -9.207031 7.257812 -9.546875 6.1875 -9.546875 C 5.113281 -9.546875 4.289062 -9.207031 3.71875 -8.53125 C 3.144531 -7.851562 2.859375 -6.800781 2.859375 -5.375 C 2.859375 -3.957031 3.144531 -2.910156 3.71875 -2.234375 C 4.289062 -1.554688 5.113281 -1.21875 6.1875 -1.21875 Z M 6.1875 -1.21875 "/></g></g></g><g fill="#000000" fill-opacity="1"><g transform="translate(140.402977, 212.038228)"><g><path d="M 1.875 0 L 1.875 -10.765625 L 3.390625 -10.765625 L 3.390625 -9.078125 L 3.59375 -9.03125 C 3.945312 -9.664062 4.398438 -10.148438 4.953125 -10.484375 C 5.515625 -10.816406 6.195312 -10.984375 7 -10.984375 C 8.300781 -10.984375 9.238281 -10.648438 9.8125 -9.984375 C 10.394531 -9.328125 10.6875 -8.3125 10.6875 -6.9375 L 10.6875 0 L 9.109375 0 L 9.109375 -6.890625 C 9.109375 -7.546875 9.023438 -8.066406 8.859375 -8.453125 C 8.691406 -8.847656 8.429688 -9.132812 8.078125 -9.3125 C 7.734375 -9.5 7.273438 -9.59375 6.703125 -9.59375 C 5.734375 -9.59375 4.953125 -9.269531 4.359375 -8.625 C 3.765625 -7.988281 3.46875 -6.957031 3.46875 -5.53125 L 3.46875 0 Z M 1.875 0 "/></g></g></g></svg>