<svg xmlns="http://www.w3.org/2000/svg" xmlns:xlink="http://www.w3.org/1999/xlink" width="73" zoomAndPan="magnify" viewBox="0 0 54.75 121.499994" height="162" preserveAspectRatio="xMidYMid meet" version="1.0"><defs><clipPath id="35178889e5"><path d="M 27 19 L 31 19 L 31 70.207031 L 27 70.207031 Z M 27 19 " clip-rule="nonzero"/></clipPath><clipPath id="a51ac708db"><path d="M 17.050781 0.0273438 L 40.945312 0.0273438 L 40.945312 24 L 17.050781 24 Z M 17.050781 0.0273438 " clip-rule="nonzero"/></clipPath><clipPath id="1a9c4a2425"><path d="M 0 50.460938 L 53.753906 50.460938 L 53.753906 120.640625 L 0 120.640625 Z M 0 50.460938 " clip-rule="nonzero"/></clipPath><clipPath id="7b3881b34b"><path d="M 3 50.460938 L 53.753906 50.460938 L 53.753906 112 L 3 112 Z M 3 50.460938 " clip-rule="nonzero"/></clipPath><clipPath id="2085a2fcbb"><path d="M 0 74 L 30 74 L 30 120.640625 L 0 120.640625 Z M 0 74 " clip-rule="nonzero"/></clipPath><clipPath id="08b1e5e7ca"><path d="M 0 50.460938 L 53.753906 50.460938 L 53.753906 120.640625 L 0 120.640625 Z M 0 50.460938 " clip-rule="nonzero"/></clipPath></defs><g clip-path="url(#35178889e5)"><path fill="#cfcfcf" d="M 29 70.207031 L 30.71875 19.578125 L 27.277344 19.578125 Z M 29 70.207031 " fill-opacity="1" fill-rule="nonzero"/></g><g clip-path="url(#a51ac708db)"><path fill="#df3535" d="M 40.917969 11.722656 C 40.917969 12.492188 40.84375 13.253906 40.691406 14.003906 C 40.539062 14.757812 40.3125 15.492188 40.011719 16.199219 C 39.710938 16.910156 39.34375 17.582031 38.910156 18.222656 C 38.476562 18.859375 37.980469 19.453125 37.429688 19.996094 C 36.875 20.539062 36.273438 21.023438 35.621094 21.449219 C 34.96875 21.875 34.285156 22.234375 33.558594 22.53125 C 32.835938 22.824219 32.089844 23.046875 31.324219 23.195312 C 30.554688 23.34375 29.78125 23.421875 29 23.421875 C 28.214844 23.421875 27.441406 23.34375 26.671875 23.195312 C 25.90625 23.046875 25.160156 22.824219 24.4375 22.53125 C 23.710938 22.234375 23.027344 21.875 22.375 21.449219 C 21.722656 21.023438 21.121094 20.539062 20.566406 19.996094 C 20.015625 19.453125 19.519531 18.859375 19.085938 18.222656 C 18.652344 17.582031 18.285156 16.910156 17.984375 16.199219 C 17.683594 15.492188 17.457031 14.757812 17.304688 14.003906 C 17.152344 13.253906 17.078125 12.492188 17.078125 11.722656 C 17.078125 10.957031 17.152344 10.195312 17.304688 9.441406 C 17.457031 8.6875 17.683594 7.957031 17.984375 7.246094 C 18.285156 6.539062 18.652344 5.863281 19.085938 5.226562 C 19.519531 4.585938 20.015625 3.996094 20.566406 3.453125 C 21.121094 2.910156 21.722656 2.425781 22.375 2 C 23.027344 1.570312 23.710938 1.210938 24.4375 0.917969 C 25.160156 0.625 25.90625 0.402344 26.671875 0.253906 C 27.441406 0.101562 28.214844 0.0273438 29 0.0273438 C 29.78125 0.0273438 30.554688 0.101562 31.324219 0.253906 C 32.089844 0.402344 32.835938 0.625 33.558594 0.917969 C 34.285156 1.210938 34.96875 1.570312 35.621094 2 C 36.273438 2.425781 36.875 2.910156 37.429688 3.453125 C 37.980469 3.996094 38.476562 4.585938 38.910156 5.226562 C 39.34375 5.863281 39.710938 6.539062 40.011719 7.246094 C 40.3125 7.957031 40.539062 8.6875 40.691406 9.441406 C 40.84375 10.195312 40.917969 10.957031 40.917969 11.722656 Z M 40.917969 11.722656 " fill-opacity="1" fill-rule="nonzero"/></g><path fill="#e8e7e7" d="M 22.175781 7.007812 C 20.015625 10.363281 20.488281 13.960938 22.53125 15.300781 C 20.082031 13.695312 18.578125 9.390625 20.738281 6.035156 C 22.894531 2.683594 27.066406 1.640625 29.515625 3.246094 C 27.125 2.65625 24.335938 3.652344 22.175781 7.007812 Z M 22.175781 7.007812 " fill-opacity="1" fill-rule="nonzero"/><g clip-path="url(#1a9c4a2425)"><path fill="#646273" d="M 53.664062 55.46875 C 53.648438 55.066406 53.636719 54.664062 53.617188 54.261719 C 53.5625 53.21875 53.527344 52.171875 53.488281 51.128906 C 53.472656 50.675781 53.519531 50.640625 52.980469 50.640625 C 36.695312 50.640625 20.410156 50.640625 4.125 50.640625 C 3.972656 50.640625 3.816406 50.667969 3.660156 50.59375 C 3.542969 50.535156 3.445312 50.640625 3.367188 50.710938 C 3.300781 50.773438 3.316406 50.863281 3.386719 50.9375 C 3.445312 50.996094 3.433594 51.070312 3.429688 51.148438 C 3.402344 51.6875 3.371094 52.230469 3.347656 52.769531 C 3.320312 53.386719 3.304688 54 3.265625 54.617188 C 3.253906 54.839844 3.238281 55.0625 3.230469 55.289062 C 3.230469 55.429688 3.304688 55.496094 3.433594 55.503906 C 3.488281 55.507812 3.546875 55.503906 3.601562 55.503906 C 4.328125 55.511719 5.054688 55.511719 5.78125 55.515625 C 6.070312 55.519531 6.144531 55.597656 6.195312 55.882812 C 6.289062 56.417969 6.328125 56.957031 6.375 57.496094 C 6.476562 58.683594 6.589844 59.875 6.699219 61.066406 C 6.777344 61.96875 6.851562 62.867188 6.933594 63.773438 C 7.035156 64.960938 7.148438 66.152344 7.253906 67.34375 C 7.335938 68.253906 7.410156 69.164062 7.492188 70.074219 C 7.597656 71.246094 7.707031 72.417969 7.8125 73.589844 C 7.875 74.304688 7.929688 75.023438 7.996094 75.738281 C 8.082031 76.726562 8.171875 77.710938 8.265625 78.695312 C 8.332031 79.441406 8.402344 80.183594 8.464844 80.925781 C 8.492188 81.238281 8.515625 81.550781 8.542969 81.90625 C 8.285156 81.722656 8.046875 81.582031 7.796875 81.457031 C 6.996094 81.050781 6.160156 80.753906 5.28125 80.566406 C 4.738281 80.449219 4.199219 80.421875 3.648438 80.53125 C 3.316406 80.59375 3.003906 80.714844 2.691406 80.824219 C 2.492188 80.890625 2.441406 80.945312 2.507812 81.136719 C 2.632812 81.515625 2.789062 81.882812 3.011719 82.222656 C 3.707031 83.273438 4.648438 84.027344 5.785156 84.542969 C 6.539062 84.886719 7.328125 85.078125 8.164062 85.039062 C 8.207031 85.035156 8.257812 85.015625 8.285156 85.070312 C 8.28125 85.089844 8.28125 85.109375 8.269531 85.121094 C 8.234375 85.164062 8.191406 85.203125 8.152344 85.242188 C 7.394531 85.988281 6.671875 86.765625 6.03125 87.621094 C 3.824219 90.558594 2.195312 93.792969 1.148438 97.320312 C 0.472656 99.59375 0.0859375 101.917969 0.136719 104.308594 C 0.15625 105.335938 0.214844 106.359375 0.386719 107.375 C 0.730469 109.429688 1.421875 111.363281 2.429688 113.183594 C 3.074219 114.34375 3.824219 115.433594 4.761719 116.378906 C 5.71875 117.339844 6.808594 118.140625 8 118.796875 C 8.972656 119.335938 10.019531 119.675781 11.085938 119.96875 C 11.460938 120.074219 11.855469 120.113281 12.238281 120.179688 C 13.503906 120.40625 14.78125 120.519531 16.0625 120.5625 C 18.230469 120.628906 20.378906 120.464844 22.503906 120.054688 C 23.765625 119.8125 24.988281 119.4375 26.136719 118.851562 C 26.34375 118.746094 26.558594 118.640625 26.742188 118.503906 C 27.695312 117.800781 28.386719 116.890625 28.84375 115.796875 C 29.285156 114.757812 29.53125 113.671875 29.660156 112.554688 C 29.703125 112.183594 29.726562 111.8125 29.761719 111.441406 C 29.996094 111.410156 36.011719 111.414062 36.242188 111.445312 C 37.25 115.257812 40.75 117.734375 44.578125 117.460938 C 48.152344 117.203125 51.058594 114.660156 51.84375 111.152344 C 52.011719 110.390625 52.066406 109.617188 52.003906 108.839844 C 51.945312 108.0625 51.78125 107.308594 51.503906 106.578125 C 51.222656 105.839844 50.851562 105.152344 50.363281 104.53125 C 49.882812 103.921875 49.335938 103.390625 48.703125 102.929688 C 48.074219 102.46875 47.394531 102.132812 46.699219 101.84375 C 46.667969 101.773438 46.679688 101.71875 46.683594 101.660156 C 46.734375 101.21875 46.789062 100.769531 46.835938 100.328125 C 46.917969 99.613281 46.992188 98.898438 47.074219 98.183594 C 47.175781 97.285156 47.28125 96.386719 47.382812 95.488281 C 47.488281 94.570312 47.585938 93.648438 47.691406 92.730469 C 47.792969 91.816406 47.898438 90.898438 48.003906 89.980469 C 48.105469 89.078125 48.203125 88.179688 48.304688 87.28125 C 48.410156 86.351562 48.519531 85.425781 48.625 84.5 C 48.707031 83.765625 48.785156 83.035156 48.867188 82.300781 C 48.988281 81.234375 49.113281 80.167969 49.230469 79.105469 C 49.316406 78.351562 49.394531 77.597656 49.480469 76.847656 C 49.601562 75.789062 49.726562 74.734375 49.84375 73.679688 C 49.949219 72.761719 50.046875 71.839844 50.148438 70.921875 C 50.289062 69.699219 50.433594 68.476562 50.570312 67.25 C 50.691406 66.1875 50.804688 65.121094 50.929688 64.054688 C 51.085938 62.738281 51.25 61.421875 51.40625 60.109375 C 51.566406 58.773438 51.71875 57.4375 51.875 56.105469 C 51.910156 55.8125 51.960938 55.769531 52.246094 55.773438 C 52.617188 55.773438 52.992188 55.789062 53.363281 55.789062 C 53.628906 55.78125 53.675781 55.738281 53.664062 55.46875 Z M 15.816406 80.855469 C 15.425781 81.042969 15.050781 81.257812 14.691406 81.507812 C 14.484375 81.664062 14.28125 81.8125 14.078125 81.984375 C 14.28125 81.816406 14.484375 81.664062 14.691406 81.507812 C 15.050781 81.257812 15.425781 81.042969 15.816406 80.855469 C 15.972656 80.78125 16.132812 80.710938 16.292969 80.640625 C 16.132812 80.707031 15.972656 80.78125 15.816406 80.855469 Z M 10.328125 76.675781 C 10.316406 76.679688 10.308594 76.6875 10.300781 76.695312 C 10.308594 76.6875 10.320312 76.683594 10.328125 76.675781 C 10.390625 76.59375 10.449219 76.511719 10.511719 76.429688 C 10.453125 76.511719 10.390625 76.59375 10.328125 76.675781 Z M 10.328125 76.675781 " fill-opacity="1" fill-rule="nonzero"/></g><g clip-path="url(#7b3881b34b)"><path fill="#fabe66" d="M 8.65625 79.480469 C 8.585938 78.707031 8.511719 77.9375 8.441406 77.167969 C 8.394531 76.636719 8.359375 76.109375 8.3125 75.578125 C 8.265625 75.066406 8.210938 74.558594 8.164062 74.046875 C 8.117188 73.535156 8.082031 73.023438 8.035156 72.511719 C 7.984375 71.976562 7.929688 71.433594 7.882812 70.898438 C 7.835938 70.386719 7.800781 69.875 7.753906 69.363281 C 7.707031 68.828125 7.652344 68.289062 7.605469 67.75 C 7.558594 67.25 7.523438 66.746094 7.476562 66.242188 C 7.429688 65.695312 7.371094 65.148438 7.324219 64.601562 C 7.277344 64.109375 7.242188 63.613281 7.199219 63.125 C 7.148438 62.566406 7.09375 62.011719 7.042969 61.453125 C 6.996094 60.960938 6.964844 60.46875 6.917969 59.976562 C 6.871094 59.417969 6.800781 58.863281 6.765625 58.304688 C 6.734375 57.78125 6.667969 57.265625 6.636719 56.742188 C 6.621094 56.460938 6.558594 56.1875 6.582031 55.90625 C 6.917969 55.90625 7.253906 55.914062 7.589844 55.898438 C 7.871094 55.886719 8.144531 55.953125 8.421875 55.976562 C 8.851562 56.011719 9.28125 56.078125 9.714844 56.132812 C 10.082031 56.179688 10.449219 56.238281 10.816406 56.28125 C 11.199219 56.328125 11.585938 56.367188 11.972656 56.414062 C 12.332031 56.453125 12.6875 56.5 13.046875 56.546875 C 13.425781 56.59375 13.796875 56.652344 14.175781 56.691406 C 14.554688 56.730469 14.929688 56.789062 15.308594 56.820312 C 15.683594 56.851562 16.058594 56.921875 16.433594 56.96875 C 16.800781 57.015625 17.171875 57.039062 17.539062 57.097656 C 17.957031 57.164062 18.378906 57.199219 18.804688 57.253906 C 19.152344 57.300781 19.503906 57.339844 19.847656 57.382812 C 20.226562 57.429688 20.597656 57.488281 20.976562 57.535156 C 21.34375 57.582031 21.710938 57.617188 22.078125 57.660156 C 22.492188 57.707031 22.902344 57.761719 23.316406 57.816406 C 23.691406 57.867188 24.066406 57.917969 24.445312 57.964844 C 24.808594 58.011719 25.179688 58.050781 25.546875 58.097656 C 25.921875 58.140625 26.300781 58.179688 26.675781 58.226562 C 27.042969 58.273438 27.410156 58.328125 27.777344 58.375 C 28.144531 58.417969 28.511719 58.453125 28.882812 58.496094 C 29.3125 58.546875 29.742188 58.605469 30.171875 58.65625 C 30.511719 58.699219 30.851562 58.738281 31.191406 58.78125 C 31.605469 58.832031 32.019531 58.886719 32.433594 58.9375 C 32.789062 58.980469 33.148438 59.023438 33.507812 59.070312 C 33.894531 59.121094 34.277344 59.171875 34.664062 59.21875 C 35.039062 59.265625 35.414062 59.304688 35.792969 59.351562 C 36.179688 59.398438 36.5625 59.449219 36.949219 59.5 C 37.308594 59.542969 37.667969 59.582031 38.023438 59.628906 C 38.429688 59.675781 38.832031 59.730469 39.234375 59.78125 C 39.59375 59.824219 39.949219 59.859375 40.308594 59.90625 C 40.703125 59.957031 41.097656 60.011719 41.492188 60.0625 C 41.859375 60.105469 42.226562 60.144531 42.59375 60.1875 C 43 60.234375 43.402344 60.289062 43.804688 60.34375 C 44.171875 60.394531 44.539062 60.445312 44.902344 60.492188 C 45.269531 60.539062 45.640625 60.578125 46.007812 60.625 C 46.382812 60.667969 46.761719 60.707031 47.136719 60.753906 C 47.53125 60.804688 47.925781 60.855469 48.320312 60.90625 C 48.6875 60.949219 49.054688 60.988281 49.421875 61.035156 C 49.917969 61.09375 50.410156 61.199219 50.914062 61.1875 C 50.902344 61.636719 50.820312 62.078125 50.78125 62.523438 C 50.746094 62.941406 50.6875 63.359375 50.640625 63.773438 C 50.570312 64.363281 50.496094 64.953125 50.429688 65.546875 C 50.367188 66.066406 50.3125 66.585938 50.25 67.105469 C 50.148438 67.929688 50.09375 68.757812 49.980469 69.578125 C 49.902344 70.148438 49.859375 70.726562 49.792969 71.304688 C 49.707031 72.054688 49.617188 72.800781 49.53125 73.550781 C 49.46875 74.113281 49.414062 74.683594 49.347656 75.246094 C 49.285156 75.820312 49.210938 76.390625 49.144531 76.964844 C 49.082031 77.519531 49.027344 78.078125 48.964844 78.636719 C 48.894531 79.234375 48.824219 79.835938 48.753906 80.441406 C 48.710938 80.832031 48.671875 81.21875 48.628906 81.609375 C 48.558594 82.210938 48.488281 82.8125 48.421875 83.414062 C 48.375 83.804688 48.335938 84.191406 48.292969 84.582031 C 48.226562 85.183594 48.15625 85.78125 48.085938 86.386719 C 48.042969 86.785156 48.003906 87.183594 47.957031 87.582031 C 47.886719 88.191406 47.816406 88.804688 47.742188 89.414062 C 47.679688 89.96875 47.625 90.527344 47.5625 91.082031 C 47.496094 91.667969 47.425781 92.25 47.359375 92.832031 C 47.316406 93.21875 47.273438 93.609375 47.230469 94 C 47.164062 94.613281 47.089844 95.222656 47.019531 95.832031 C 46.960938 96.382812 46.902344 96.929688 46.839844 97.472656 C 46.769531 98.085938 46.699219 98.695312 46.628906 99.304688 C 46.585938 99.703125 46.546875 100.105469 46.503906 100.5 C 46.457031 100.898438 46.410156 101.292969 46.359375 101.710938 C 43.476562 100.953125 40.863281 101.472656 38.65625 103.476562 C 36.441406 105.480469 35.683594 108.042969 36.140625 110.992188 C 36.113281 111.035156 36.066406 111.035156 36.019531 111.039062 C 34.503906 111.058594 32.988281 111.101562 31.46875 111.078125 C 31.464844 110.9375 31.472656 110.792969 31.457031 110.65625 C 31.40625 110.222656 31.355469 109.792969 31.296875 109.359375 C 31.222656 108.808594 31.160156 108.253906 31.058594 107.707031 C 30.828125 106.484375 30.476562 105.300781 30.09375 104.121094 C 29.773438 103.140625 29.359375 102.1875 28.941406 101.242188 C 28.546875 100.355469 28.089844 99.496094 27.640625 98.636719 C 27.40625 98.191406 27.167969 97.746094 26.921875 97.308594 C 26.511719 96.585938 26.09375 95.871094 25.683594 95.148438 C 25.167969 94.230469 24.628906 93.324219 24.058594 92.441406 C 23.472656 91.535156 22.867188 90.644531 22.179688 89.808594 C 21.664062 89.179688 21.113281 88.585938 20.558594 88 C 20.011719 87.414062 19.40625 86.886719 18.824219 86.339844 C 18.28125 85.835938 17.710938 85.378906 17.101562 84.96875 C 16.859375 84.804688 16.605469 84.660156 16.332031 84.496094 C 16.679688 84.265625 17 84.046875 17.289062 83.78125 C 17.578125 83.519531 17.890625 83.28125 18.160156 82.996094 C 18.339844 82.800781 18.535156 82.609375 18.660156 82.367188 C 18.765625 82.171875 18.726562 82.078125 18.511719 82.011719 C 18.292969 81.941406 18.066406 81.894531 17.828125 81.898438 C 17.730469 81.902344 17.621094 81.929688 17.539062 81.84375 C 17.636719 81.59375 17.773438 81.359375 17.84375 81.097656 C 17.890625 80.917969 17.890625 80.746094 17.875 80.570312 C 17.859375 80.382812 17.761719 80.253906 17.523438 80.277344 C 17.179688 80.3125 16.859375 80.429688 16.542969 80.554688 C 15.894531 80.804688 15.273438 81.117188 14.699219 81.515625 C 14.582031 81.390625 14.6875 81.261719 14.71875 81.152344 C 15 80.171875 15.144531 79.175781 15.09375 78.152344 C 15.085938 77.9375 15.109375 77.71875 15.082031 77.507812 C 15.007812 76.929688 14.945312 76.351562 14.808594 75.78125 C 14.6875 75.257812 14.558594 74.734375 14.300781 74.253906 C 14.117188 73.910156 13.972656 73.851562 13.632812 74.023438 C 13.347656 74.160156 13.066406 74.304688 12.785156 74.449219 C 12.707031 74.492188 12.609375 74.515625 12.578125 74.617188 C 12.246094 74.570312 11.996094 74.695312 11.769531 74.9375 C 11.320312 75.414062 10.921875 75.921875 10.527344 76.441406 C 10.46875 76.523438 10.40625 76.601562 10.347656 76.683594 C 10.300781 76.707031 10.289062 76.746094 10.289062 76.792969 C 10.269531 76.816406 10.253906 76.835938 10.234375 76.859375 C 10.226562 76.898438 10.214844 76.9375 10.175781 76.964844 C 10.066406 76.976562 10.0625 77.050781 10.066406 77.132812 C 9.941406 77.144531 9.910156 77.257812 9.859375 77.339844 C 9.472656 77.96875 9.101562 78.609375 8.820312 79.296875 C 8.769531 79.359375 8.746094 79.445312 8.65625 79.480469 Z M 32.949219 85.449219 C 33.03125 85.46875 33.125 85.488281 33.214844 85.492188 C 33.421875 85.5 33.636719 85.445312 33.832031 85.578125 C 33.878906 85.613281 33.992188 85.605469 34.046875 85.566406 C 34.175781 85.480469 34.3125 85.503906 34.449219 85.484375 C 34.792969 85.441406 35.152344 85.417969 35.476562 85.277344 C 35.789062 85.140625 36.113281 85.03125 36.40625 84.851562 C 36.992188 84.496094 37.515625 84.066406 37.972656 83.546875 C 38.214844 83.273438 38.398438 82.964844 38.601562 82.667969 C 38.828125 82.335938 39.039062 81.976562 39.152344 81.59375 C 39.265625 81.226562 39.394531 80.863281 39.492188 80.492188 C 39.652344 79.910156 39.6875 79.316406 39.699219 78.726562 C 39.710938 78.039062 39.65625 77.351562 39.503906 76.675781 C 39.457031 76.46875 39.421875 76.257812 39.359375 76.054688 C 39.269531 75.765625 39.113281 75.5 39.046875 75.203125 C 39.03125 75.140625 39.011719 75.070312 38.972656 75.023438 C 38.777344 74.785156 38.679688 74.492188 38.527344 74.226562 C 38.226562 73.722656 37.894531 73.25 37.488281 72.832031 C 37.273438 72.613281 37.066406 72.5625 36.8125 72.703125 C 36.5 72.878906 36.179688 73.039062 35.867188 73.214844 C 35.332031 73.515625 34.804688 73.824219 34.269531 74.128906 C 33.730469 74.429688 33.210938 74.769531 32.640625 75.011719 C 32.523438 75.0625 32.382812 75.144531 32.40625 75.320312 C 32.425781 75.484375 32.453125 75.640625 32.636719 75.730469 C 32.84375 75.835938 33.054688 75.949219 33.222656 76.105469 C 33.597656 76.457031 33.960938 76.828125 34.277344 77.238281 C 34.535156 77.574219 34.78125 77.917969 34.976562 78.296875 C 35.097656 78.535156 35.195312 78.789062 35.304688 79.03125 C 35.4375 79.335938 35.527344 79.660156 35.464844 80.019531 C 34.542969 80.289062 33.605469 80.332031 32.621094 80.304688 C 32.621094 79.890625 32.613281 79.5 32.621094 79.109375 C 32.628906 78.929688 32.527344 78.75 32.367188 78.703125 C 32.214844 78.65625 32.125 78.707031 32.015625 78.898438 C 31.78125 79.304688 31.546875 79.710938 31.3125 80.121094 C 31.210938 80.300781 31.089844 80.476562 31.003906 80.667969 C 30.820312 81.0625 30.574219 81.421875 30.355469 81.789062 C 30.148438 82.140625 29.984375 82.515625 29.761719 82.859375 C 29.671875 82.996094 29.738281 83.128906 29.898438 83.183594 C 29.980469 83.214844 30.058594 83.246094 30.101562 83.320312 C 30.226562 83.558594 30.429688 83.734375 30.585938 83.949219 C 30.9375 84.433594 31.304688 84.910156 31.648438 85.40625 C 31.863281 85.714844 32.144531 85.972656 32.296875 86.324219 C 32.339844 86.421875 32.429688 86.457031 32.503906 86.503906 C 32.621094 86.585938 32.832031 86.496094 32.847656 86.347656 C 32.863281 86.164062 32.929688 85.984375 32.914062 85.792969 C 32.90625 85.683594 32.882812 85.570312 32.949219 85.449219 Z M 24.132812 80.421875 C 23.882812 79.863281 23.960938 79.320312 24.132812 78.8125 C 24.234375 78.515625 24.335938 78.167969 24.667969 77.988281 C 24.953125 78.089844 25.210938 78.253906 25.507812 78.320312 C 25.683594 78.359375 25.832031 78.285156 25.863281 78.113281 C 25.882812 78.011719 25.886719 77.90625 25.839844 77.808594 C 25.582031 77.277344 25.425781 76.703125 25.199219 76.152344 C 25.15625 76.042969 25.121094 75.925781 25.082031 75.8125 C 24.878906 75.261719 24.652344 74.71875 24.472656 74.15625 C 24.429688 74.015625 24.367188 73.863281 24.175781 73.871094 C 23.960938 73.875 23.75 73.820312 23.542969 73.816406 C 22.808594 73.796875 22.074219 73.726562 21.339844 73.746094 C 21.21875 73.75 21.097656 73.734375 20.976562 73.726562 C 20.46875 73.695312 19.957031 73.679688 19.445312 73.699219 C 19.230469 73.707031 19.140625 73.890625 19.253906 74.070312 C 19.296875 74.136719 19.351562 74.21875 19.417969 74.25 C 19.683594 74.359375 19.839844 74.597656 20.039062 74.730469 C 19.992188 74.886719 19.953125 75.035156 19.925781 75.171875 C 19.882812 75.363281 19.785156 75.535156 19.769531 75.730469 C 19.753906 75.90625 19.722656 76.074219 19.636719 76.234375 C 19.585938 76.328125 19.554688 76.449219 19.5625 76.554688 C 19.578125 76.902344 19.464844 77.242188 19.496094 77.585938 C 19.5 77.625 19.503906 77.664062 19.488281 77.699219 C 19.390625 77.902344 19.410156 78.128906 19.449219 78.332031 C 19.5 78.589844 19.476562 78.847656 19.503906 79.105469 C 19.511719 79.179688 19.5 79.253906 19.515625 79.328125 C 19.609375 79.722656 19.710938 80.113281 19.804688 80.507812 C 19.875 80.835938 20.042969 81.128906 20.148438 81.441406 C 20.285156 81.851562 20.515625 82.203125 20.742188 82.558594 C 20.921875 82.839844 21.140625 83.085938 21.34375 83.347656 C 21.523438 83.570312 21.726562 83.773438 21.9375 83.960938 C 22.140625 84.152344 22.371094 84.324219 22.601562 84.488281 C 23.015625 84.785156 23.453125 85.027344 23.90625 85.234375 C 24.261719 85.398438 24.640625 85.519531 25.023438 85.609375 C 25.480469 85.722656 25.949219 85.789062 26.417969 85.820312 C 27.046875 85.859375 27.671875 85.8125 28.289062 85.707031 C 28.546875 85.664062 28.824219 85.664062 29.046875 85.472656 C 29.125 85.40625 29.167969 85.34375 29.167969 85.242188 C 29.167969 84.90625 29.1875 84.574219 29.210938 84.238281 C 29.257812 83.617188 29.203125 82.992188 29.265625 82.363281 C 29.304688 82.023438 29.273438 81.671875 29.28125 81.328125 C 29.28125 81.148438 29.273438 80.976562 29.324219 80.800781 C 29.363281 80.660156 29.351562 80.507812 29.277344 80.367188 C 29.214844 80.253906 29.136719 80.214844 29.003906 80.238281 C 28.632812 80.296875 28.273438 80.429688 27.890625 80.449219 C 27.625 80.464844 27.359375 80.535156 27.09375 80.542969 C 26.433594 80.554688 25.773438 80.566406 25.113281 80.539062 C 24.78125 80.523438 24.445312 80.515625 24.132812 80.421875 Z M 35.039062 69.222656 C 34.6875 68.703125 34.335938 68.214844 33.914062 67.78125 C 33.484375 67.339844 32.972656 67.015625 32.453125 66.703125 C 31.878906 66.355469 31.230469 66.15625 30.589844 65.984375 C 30.132812 65.863281 29.65625 65.808594 29.183594 65.800781 C 28.796875 65.792969 28.40625 65.804688 28.019531 65.84375 C 27.511719 65.894531 27.015625 66.007812 26.539062 66.167969 C 26.019531 66.339844 25.511719 66.554688 25.035156 66.847656 C 24.6875 67.0625 24.355469 67.285156 24.0625 67.566406 C 23.675781 67.9375 23.328125 68.339844 23.0625 68.808594 C 22.773438 69.324219 22.550781 69.863281 22.375 70.429688 C 22.25 70.816406 22.105469 71.191406 22.0625 71.601562 C 22.027344 71.882812 22.027344 71.921875 22.234375 72.058594 C 22.671875 72.34375 23.109375 72.628906 23.546875 72.914062 C 24.253906 73.375 24.957031 73.84375 25.671875 74.296875 C 25.90625 74.445312 26.117188 74.660156 26.421875 74.683594 C 26.644531 74.53125 26.75 74.332031 26.710938 74.0625 C 26.703125 74.007812 26.714844 73.949219 26.726562 73.898438 C 26.867188 73.363281 27.007812 72.824219 27.238281 72.320312 C 27.445312 71.859375 27.671875 71.410156 27.921875 70.972656 C 28.175781 70.539062 28.46875 70.140625 28.777344 69.746094 C 28.925781 69.554688 29.097656 69.382812 29.285156 69.234375 C 29.4375 69.117188 29.503906 69.128906 29.613281 69.265625 C 29.796875 69.480469 29.96875 69.707031 30.140625 69.929688 C 30.488281 70.378906 30.761719 70.875 31.066406 71.347656 C 31.226562 71.597656 31.273438 71.789062 31.035156 71.996094 C 31.023438 72.003906 31.023438 72.03125 31.015625 72.046875 C 30.789062 72.425781 30.597656 72.820312 30.320312 73.171875 C 30.164062 73.371094 30.25 73.628906 30.476562 73.683594 C 30.582031 73.707031 30.722656 73.726562 30.804688 73.675781 C 31.046875 73.539062 31.3125 73.578125 31.5625 73.546875 C 31.957031 73.503906 32.347656 73.441406 32.746094 73.398438 C 33.261719 73.34375 33.769531 73.261719 34.289062 73.238281 C 34.363281 73.230469 34.4375 73.25 34.503906 73.199219 C 34.625 73.113281 34.742188 73.121094 34.867188 73.207031 C 34.976562 73.28125 35.058594 73.222656 35.128906 73.132812 C 35.199219 73.039062 35.222656 72.929688 35.21875 72.816406 C 35.21875 72.710938 35.226562 72.617188 35.285156 72.523438 C 35.335938 72.4375 35.347656 72.328125 35.375 72.230469 C 35.433594 72.015625 35.460938 71.792969 35.503906 71.578125 C 35.566406 71.25 35.625 70.925781 35.753906 70.617188 C 35.773438 70.578125 35.757812 70.523438 35.765625 70.476562 C 35.839844 70.109375 35.910156 69.734375 36.007812 69.371094 C 36.039062 69.25 36.050781 69.152344 35.972656 69.058594 C 35.894531 68.96875 35.796875 68.992188 35.691406 69.019531 C 35.46875 69.066406 35.277344 69.195312 35.039062 69.222656 Z M 3.867188 55.179688 C 6.390625 55.210938 8.914062 55.1875 11.4375 55.226562 C 14.882812 55.28125 18.328125 55.234375 21.773438 55.285156 C 25.21875 55.339844 28.667969 55.285156 32.113281 55.339844 C 35.566406 55.390625 39.019531 55.347656 42.476562 55.394531 C 45.699219 55.4375 48.921875 55.414062 52.144531 55.421875 C 52.292969 55.421875 52.441406 55.433594 52.589844 55.449219 C 52.828125 55.472656 53.070312 55.480469 53.304688 55.4375 C 53.359375 55.023438 53.199219 51.316406 53.113281 50.980469 C 36.671875 50.980469 20.226562 50.980469 3.757812 50.980469 C 3.691406 52.378906 3.628906 53.761719 3.5625 55.132812 C 3.683594 55.199219 3.773438 55.179688 3.867188 55.179688 Z M 3.867188 55.179688 " fill-opacity="1" fill-rule="nonzero"/></g><g clip-path="url(#2085a2fcbb)"><path fill="#90cdbb" d="M 17.582031 120.289062 C 16.507812 120.3125 15.441406 120.25 14.371094 120.167969 C 13.539062 120.101562 12.714844 119.964844 11.898438 119.765625 C 11.484375 119.664062 11.058594 119.621094 10.640625 119.527344 C 10.347656 119.460938 10.058594 119.355469 9.773438 119.257812 C 8.257812 118.730469 6.917969 117.90625 5.726562 116.828125 C 3.382812 114.707031 1.894531 112.0625 1.058594 109.03125 C 0.648438 107.554688 0.457031 106.050781 0.441406 104.519531 C 0.433594 103.75 0.425781 102.984375 0.496094 102.222656 C 0.578125 101.328125 0.710938 100.441406 0.902344 99.5625 C 1.75 95.714844 3.273438 92.15625 5.472656 88.890625 C 6.273438 87.703125 7.179688 86.601562 8.210938 85.601562 C 8.390625 85.425781 8.542969 85.34375 8.816406 85.414062 C 9.359375 85.550781 9.929688 85.503906 10.484375 85.480469 C 11.636719 85.429688 12.78125 85.273438 13.890625 84.929688 C 14.078125 84.871094 14.265625 84.8125 14.429688 84.703125 C 14.554688 84.621094 14.648438 84.652344 14.757812 84.726562 C 15.304688 85.082031 15.824219 85.480469 16.324219 85.902344 C 18.132812 87.433594 19.730469 89.167969 21.242188 90.988281 C 22.609375 92.632812 23.875 94.355469 25.003906 96.175781 C 25.613281 97.152344 26.140625 98.175781 26.589844 99.234375 C 26.824219 99.789062 27.074219 100.339844 27.328125 100.894531 C 27.554688 101.390625 27.730469 101.917969 27.914062 102.433594 C 28.472656 103.984375 28.953125 105.554688 29.207031 107.183594 C 29.332031 107.996094 29.421875 108.816406 29.460938 109.636719 C 29.503906 110.542969 29.492188 111.449219 29.394531 112.351562 C 29.230469 113.871094 28.886719 115.335938 28.074219 116.65625 C 27.773438 117.144531 27.417969 117.585938 26.960938 117.9375 C 26.875 118.007812 26.777344 118.0625 26.683594 118.121094 C 25.472656 118.890625 24.144531 119.355469 22.757812 119.664062 C 21.21875 120.011719 19.660156 120.199219 18.085938 120.257812 C 17.917969 120.265625 17.746094 120.277344 17.582031 120.289062 Z M 3.226562 107.480469 C 3.222656 107.820312 3.253906 108.265625 3.335938 108.710938 C 3.820312 111.261719 5.082031 113.308594 7.269531 114.742188 C 7.367188 114.808594 7.429688 114.878906 7.46875 114.996094 C 7.675781 115.660156 8.0625 116.191406 8.664062 116.558594 C 8.960938 116.738281 9.277344 116.871094 9.609375 116.96875 C 10.179688 117.136719 10.773438 117.195312 11.359375 117.300781 C 11.503906 117.324219 11.625 117.363281 11.722656 117.480469 C 11.871094 117.652344 12.0625 117.765625 12.265625 117.871094 C 12.550781 118.019531 12.863281 118.070312 13.171875 118.121094 C 13.597656 118.1875 14.023438 118.226562 14.453125 118.175781 C 14.988281 118.113281 15.519531 118.042969 16.054688 117.96875 C 16.292969 117.9375 16.53125 117.902344 16.769531 117.863281 C 16.875 117.847656 16.945312 117.789062 16.925781 117.671875 C 16.90625 117.574219 16.820312 117.546875 16.734375 117.546875 C 16.707031 117.546875 16.675781 117.550781 16.652344 117.558594 C 16.117188 117.632812 15.582031 117.691406 15.050781 117.78125 C 14.332031 117.902344 13.621094 117.902344 12.917969 117.75 C 12.503906 117.660156 12.109375 117.523438 11.875 117.121094 C 11.839844 117.058594 11.761719 117.035156 11.683594 117.023438 C 11.214844 116.953125 10.75 116.878906 10.28125 116.800781 C 9.773438 116.714844 9.289062 116.5625 8.84375 116.292969 C 8.273438 115.945312 7.910156 115.445312 7.757812 114.792969 C 7.730469 114.667969 7.660156 114.601562 7.558594 114.542969 C 7.175781 114.320312 6.804688 114.0625 6.476562 113.753906 C 4.332031 111.738281 3.304688 109.285156 3.628906 106.3125 C 3.632812 106.257812 3.644531 106.203125 3.644531 106.148438 C 3.636719 106.0625 3.585938 106.007812 3.503906 105.996094 C 3.433594 105.988281 3.375 106.027344 3.351562 106.09375 C 3.324219 106.171875 3.308594 106.253906 3.296875 106.339844 C 3.238281 106.683594 3.226562 107.027344 3.226562 107.480469 Z M 26.003906 106.976562 C 26.003906 106.769531 26.011719 106.566406 26 106.359375 C 25.941406 105.320312 25.6875 104.335938 25.179688 103.421875 C 25.132812 103.34375 25.085938 103.261719 25.027344 103.1875 C 24.980469 103.125 24.910156 103.089844 24.832031 103.140625 C 24.742188 103.191406 24.738281 103.269531 24.773438 103.355469 C 24.789062 103.390625 24.808594 103.421875 24.828125 103.457031 C 25.628906 104.835938 25.820312 106.328125 25.625 107.890625 C 25.484375 108.992188 25.140625 110.03125 24.632812 111.019531 C 24.605469 111.070312 24.578125 111.117188 24.554688 111.171875 C 24.515625 111.261719 24.539062 111.335938 24.625 111.386719 C 24.703125 111.433594 24.773438 111.394531 24.816406 111.328125 C 24.875 111.246094 24.925781 111.15625 24.972656 111.066406 C 25.609375 109.773438 25.984375 108.417969 26.003906 106.976562 Z M 27.191406 109.46875 C 27.191406 109.414062 27.160156 109.324219 27.042969 109.316406 C 26.929688 109.304688 26.882812 109.390625 26.863281 109.492188 C 26.851562 109.574219 26.84375 109.660156 26.832031 109.742188 C 26.6875 110.742188 26.363281 111.664062 25.699219 112.441406 C 25.59375 112.570312 25.507812 112.714844 25.375 112.824219 C 25.285156 112.894531 25.28125 112.984375 25.347656 113.070312 C 25.414062 113.15625 25.515625 113.152344 25.617188 113.0625 C 25.632812 113.050781 25.640625 113.035156 25.652344 113.019531 C 26.25 112.324219 26.746094 111.578125 26.96875 110.675781 C 27.066406 110.292969 27.15625 109.910156 27.191406 109.46875 Z M 17.148438 80.636719 C 16.828125 80.734375 16.515625 80.867188 16.210938 81 C 15.371094 81.375 14.601562 81.855469 13.945312 82.511719 C 13.839844 82.617188 13.75 82.738281 13.648438 82.847656 C 13.585938 82.917969 13.507812 82.945312 13.425781 82.890625 C 13.347656 82.839844 13.367188 82.769531 13.386719 82.691406 C 13.648438 81.730469 13.773438 80.761719 13.703125 79.757812 C 13.652344 79.050781 13.628906 78.339844 13.511719 77.640625 C 13.40625 76.992188 13.277344 76.351562 13.074219 75.730469 C 13.011719 75.542969 12.9375 75.359375 12.839844 75.191406 C 12.636719 74.863281 12.304688 74.820312 12.035156 75.089844 C 11.796875 75.328125 11.5625 75.566406 11.351562 75.832031 C 10.089844 77.414062 9.191406 79.160156 9.015625 81.21875 C 8.980469 81.628906 8.992188 82.039062 9.140625 82.429688 C 9.171875 82.515625 9.199219 82.601562 9.105469 82.652344 C 9.019531 82.703125 8.921875 82.683594 8.859375 82.59375 C 8.566406 82.203125 8.160156 81.957031 7.734375 81.742188 C 6.960938 81.347656 6.15625 81.050781 5.304688 80.859375 C 4.640625 80.714844 3.996094 80.71875 3.347656 80.886719 C 3.171875 80.933594 2.992188 80.984375 2.855469 81.097656 C 2.832031 81.175781 2.859375 81.226562 2.878906 81.277344 C 3.03125 81.703125 3.25 82.09375 3.535156 82.441406 C 4.378906 83.480469 5.4375 84.191406 6.71875 84.5625 C 7.320312 84.734375 7.9375 84.832031 8.5625 84.664062 C 8.628906 84.648438 8.691406 84.660156 8.753906 84.683594 C 9.089844 84.8125 9.441406 84.839844 9.796875 84.859375 C 10.515625 84.898438 11.226562 84.851562 11.9375 84.753906 C 12.640625 84.65625 13.332031 84.515625 14.007812 84.304688 C 14.085938 84.277344 14.175781 84.269531 14.210938 84.179688 C 14.25 84.078125 14.324219 84.042969 14.425781 84.039062 C 14.523438 84.039062 14.601562 83.980469 14.6875 83.945312 C 15.542969 83.550781 16.226562 82.945312 16.851562 82.25 C 17.101562 81.972656 17.300781 81.65625 17.445312 81.308594 C 17.535156 81.09375 17.609375 80.875 17.578125 80.609375 C 17.414062 80.570312 17.28125 80.597656 17.148438 80.636719 Z M 17.148438 80.636719 " fill-opacity="1" fill-rule="nonzero"/></g><path fill="#f59f3d" d="M 50.910156 61.1875 C 50.40625 61.199219 49.914062 61.09375 49.417969 61.035156 C 49.050781 60.988281 48.683594 60.949219 48.316406 60.90625 C 47.921875 60.855469 47.527344 60.804688 47.132812 60.753906 C 46.757812 60.707031 46.378906 60.667969 46 60.625 C 45.636719 60.582031 45.265625 60.539062 44.898438 60.492188 C 44.53125 60.445312 44.167969 60.394531 43.800781 60.34375 C 43.398438 60.289062 42.992188 60.234375 42.589844 60.1875 C 42.222656 60.144531 41.855469 60.105469 41.488281 60.0625 C 41.09375 60.011719 40.699219 59.957031 40.304688 59.90625 C 39.945312 59.863281 39.589844 59.824219 39.230469 59.78125 C 38.828125 59.730469 38.421875 59.675781 38.019531 59.628906 C 37.660156 59.582031 37.304688 59.542969 36.945312 59.5 C 36.558594 59.449219 36.175781 59.398438 35.789062 59.351562 C 35.414062 59.304688 35.035156 59.265625 34.65625 59.21875 C 34.273438 59.171875 33.886719 59.121094 33.503906 59.070312 C 33.144531 59.027344 32.785156 58.980469 32.425781 58.9375 C 32.015625 58.886719 31.601562 58.832031 31.1875 58.78125 C 30.847656 58.738281 30.507812 58.699219 30.167969 58.65625 C 29.738281 58.601562 29.304688 58.546875 28.875 58.496094 C 28.507812 58.453125 28.140625 58.417969 27.773438 58.375 C 27.40625 58.328125 27.039062 58.273438 26.671875 58.226562 C 26.296875 58.179688 25.917969 58.140625 25.539062 58.097656 C 25.175781 58.054688 24.804688 58.011719 24.4375 57.964844 C 24.0625 57.917969 23.6875 57.863281 23.3125 57.816406 C 22.898438 57.761719 22.484375 57.707031 22.074219 57.660156 C 21.707031 57.617188 21.335938 57.578125 20.972656 57.535156 C 20.59375 57.488281 20.222656 57.429688 19.84375 57.382812 C 19.496094 57.339844 19.144531 57.300781 18.796875 57.253906 C 18.375 57.203125 17.953125 57.167969 17.53125 57.097656 C 17.167969 57.039062 16.796875 57.015625 16.429688 56.96875 C 16.054688 56.921875 15.679688 56.851562 15.304688 56.820312 C 14.925781 56.789062 14.550781 56.730469 14.171875 56.691406 C 13.796875 56.652344 13.421875 56.59375 13.042969 56.546875 C 12.6875 56.5 12.328125 56.453125 11.96875 56.414062 C 11.582031 56.367188 11.195312 56.332031 10.808594 56.28125 C 10.445312 56.238281 10.078125 56.179688 9.710938 56.132812 C 9.28125 56.078125 8.851562 56.011719 8.414062 55.976562 C 8.140625 55.953125 7.867188 55.890625 7.585938 55.898438 C 7.25 55.914062 6.914062 55.90625 6.578125 55.90625 C 6.574219 55.839844 6.566406 55.773438 6.601562 55.710938 C 6.675781 55.65625 6.761719 55.675781 6.84375 55.675781 C 9.871094 55.679688 12.898438 55.644531 15.925781 55.691406 C 20.503906 55.765625 25.085938 55.675781 29.664062 55.746094 C 34.335938 55.816406 39.011719 55.730469 43.683594 55.804688 C 46.214844 55.84375 48.75 55.8125 51.28125 55.84375 C 51.363281 55.84375 51.445312 55.828125 51.550781 55.875 C 51.597656 56.09375 51.515625 56.316406 51.496094 56.542969 C 51.464844 56.941406 51.402344 57.335938 51.351562 57.734375 C 51.300781 58.148438 51.246094 58.5625 51.195312 58.976562 C 51.152344 59.347656 51.113281 59.714844 51.070312 60.085938 C 51.03125 60.425781 50.992188 60.769531 50.949219 61.109375 C 50.953125 61.144531 50.925781 61.167969 50.910156 61.1875 Z M 14.691406 84.289062 C 14.757812 84.390625 14.84375 84.429688 14.917969 84.480469 C 15.835938 85.070312 16.675781 85.769531 17.460938 86.519531 C 18.453125 87.464844 19.417969 88.433594 20.320312 89.472656 C 20.914062 90.152344 21.503906 90.835938 22.070312 91.539062 C 22.882812 92.542969 23.644531 93.589844 24.371094 94.660156 C 24.886719 95.417969 25.363281 96.195312 25.820312 96.988281 C 26.21875 97.683594 26.585938 98.394531 26.882812 99.140625 C 26.980469 99.390625 27.039062 99.660156 27.160156 99.902344 C 27.574219 100.738281 27.945312 101.59375 28.269531 102.46875 C 28.6875 103.617188 29.03125 104.789062 29.28125 105.984375 C 29.402344 106.574219 29.515625 107.167969 29.578125 107.769531 C 29.632812 108.257812 29.691406 108.75 29.738281 109.238281 C 29.789062 109.808594 29.78125 110.375 29.789062 110.945312 C 29.789062 110.980469 29.792969 111.019531 29.855469 111.070312 C 30.371094 111.070312 30.917969 111.070312 31.464844 111.070312 C 31.464844 110.929688 31.46875 110.789062 31.453125 110.648438 C 31.40625 110.214844 31.355469 109.785156 31.296875 109.351562 C 31.21875 108.800781 31.160156 108.246094 31.054688 107.699219 C 30.828125 106.480469 30.472656 105.292969 30.089844 104.117188 C 29.769531 103.132812 29.359375 102.183594 28.9375 101.234375 C 28.542969 100.347656 28.089844 99.488281 27.636719 98.628906 C 27.402344 98.183594 27.164062 97.738281 26.917969 97.300781 C 26.511719 96.578125 26.089844 95.863281 25.683594 95.140625 C 25.164062 94.222656 24.625 93.320312 24.054688 92.433594 C 23.46875 91.527344 22.863281 90.636719 22.175781 89.800781 C 21.660156 89.175781 21.109375 88.582031 20.558594 87.992188 C 20.011719 87.40625 19.40625 86.878906 18.820312 86.332031 C 18.28125 85.828125 17.707031 85.371094 17.101562 84.960938 C 16.859375 84.796875 16.601562 84.652344 16.332031 84.488281 C 16.675781 84.257812 16.996094 84.039062 17.285156 83.777344 C 17.578125 83.511719 17.886719 83.273438 18.15625 82.992188 C 18.339844 82.792969 18.535156 82.601562 18.660156 82.359375 C 18.761719 82.164062 18.726562 82.070312 18.511719 82.003906 C 18.289062 81.933594 18.0625 81.886719 17.824219 81.890625 C 17.726562 81.894531 17.617188 81.921875 17.535156 81.835938 C 16.792969 82.890625 15.859375 83.722656 14.691406 84.289062 Z M 13.074219 75.019531 C 13.242188 75.335938 13.375 75.664062 13.460938 76.007812 C 13.597656 76.578125 13.714844 77.148438 13.8125 77.726562 C 13.949219 78.550781 13.949219 79.375 14.015625 80.199219 C 14.058594 80.726562 13.960938 81.242188 13.894531 81.757812 C 13.882812 81.882812 13.820312 82 13.875 82.160156 C 14.144531 81.914062 14.417969 81.714844 14.691406 81.507812 C 14.570312 81.382812 14.679688 81.253906 14.710938 81.144531 C 14.992188 80.164062 15.132812 79.167969 15.085938 78.144531 C 15.074219 77.929688 15.097656 77.710938 15.070312 77.5 C 15 76.921875 14.933594 76.34375 14.800781 75.773438 C 14.675781 75.25 14.550781 74.726562 14.292969 74.246094 C 14.105469 73.902344 13.960938 73.84375 13.621094 74.015625 C 13.339844 74.152344 13.058594 74.296875 12.777344 74.441406 C 12.695312 74.484375 12.597656 74.507812 12.566406 74.609375 C 12.742188 74.734375 12.957031 74.800781 13.074219 75.019531 Z M 8.777344 80.398438 C 8.886719 80.273438 8.867188 80.125 8.902344 79.992188 C 9.132812 79.085938 9.457031 78.214844 9.933594 77.40625 C 9.984375 77.320312 10.046875 77.234375 10.046875 77.125 C 9.921875 77.132812 9.890625 77.25 9.84375 77.328125 C 9.453125 77.960938 9.085938 78.601562 8.800781 79.285156 C 8.769531 79.359375 8.746094 79.445312 8.65625 79.480469 C 8.632812 79.789062 8.746094 80.082031 8.777344 80.398438 Z M 10.15625 76.953125 C 10.050781 76.964844 10.046875 77.039062 10.046875 77.121094 C 10.125 77.09375 10.160156 77.035156 10.15625 76.953125 Z M 10.328125 76.675781 C 10.285156 76.695312 10.269531 76.738281 10.269531 76.785156 C 10.320312 76.761719 10.332031 76.722656 10.328125 76.675781 Z M 10.269531 76.785156 C 10.253906 76.808594 10.234375 76.828125 10.21875 76.847656 C 10.25 76.835938 10.265625 76.816406 10.269531 76.785156 Z M 10.269531 76.785156 " fill-opacity="1" fill-rule="nonzero"/><g clip-path="url(#08b1e5e7ca)"><path fill="#46444f" d="M 7.816406 114.78125 C 7.964844 115.414062 8.320312 115.902344 8.875 116.238281 C 9.277344 116.484375 9.738281 116.648438 10.292969 116.742188 C 10.738281 116.820312 11.175781 116.886719 11.695312 116.964844 C 11.777344 116.976562 11.878906 117.003906 11.929688 117.089844 C 12.152344 117.476562 12.542969 117.605469 12.929688 117.691406 C 13.605469 117.835938 14.316406 117.84375 15.042969 117.722656 C 15.402344 117.660156 15.777344 117.613281 16.136719 117.566406 C 16.304688 117.542969 16.472656 117.519531 16.644531 117.5 C 16.671875 117.492188 16.707031 117.488281 16.734375 117.488281 C 16.929688 117.488281 16.976562 117.597656 16.988281 117.664062 C 17 117.730469 16.988281 117.789062 16.957031 117.832031 C 16.921875 117.882812 16.859375 117.914062 16.78125 117.929688 C 16.546875 117.964844 16.304688 118 16.0625 118.035156 L 16 118.042969 C 15.496094 118.105469 14.972656 118.179688 14.457031 118.238281 C 14.320312 118.257812 14.183594 118.265625 14.046875 118.265625 C 13.730469 118.265625 13.429688 118.226562 13.164062 118.183594 C 12.871094 118.136719 12.535156 118.085938 12.234375 117.929688 C 12.003906 117.808594 11.820312 117.695312 11.675781 117.523438 C 11.59375 117.421875 11.492188 117.390625 11.347656 117.363281 C 11.179688 117.335938 11.011719 117.308594 10.847656 117.28125 C 10.429688 117.21875 10 117.152344 9.589844 117.03125 C 9.242188 116.929688 8.921875 116.789062 8.628906 116.613281 C 8.042969 116.253906 7.628906 115.71875 7.40625 115.015625 C 7.375 114.917969 7.324219 114.855469 7.234375 114.792969 C 5.105469 113.398438 3.773438 111.355469 3.273438 108.722656 C 3.167969 108.179688 3.160156 107.710938 3.164062 107.480469 C 3.167969 107.027344 3.179688 106.675781 3.230469 106.328125 C 3.246094 106.242188 3.261719 106.15625 3.289062 106.074219 C 3.324219 105.976562 3.410156 105.925781 3.507812 105.9375 C 3.621094 105.949219 3.695312 106.03125 3.703125 106.140625 C 3.703125 106.1875 3.699219 106.226562 3.695312 106.265625 C 3.691406 106.28125 3.6875 106.300781 3.6875 106.320312 C 3.378906 109.167969 4.328125 111.652344 6.515625 113.710938 C 6.816406 113.988281 7.164062 114.246094 7.585938 114.492188 C 7.683594 114.550781 7.78125 114.625 7.816406 114.78125 Z M 24.59375 111.441406 C 24.628906 111.460938 24.664062 111.46875 24.695312 111.46875 C 24.757812 111.46875 24.820312 111.433594 24.867188 111.367188 C 24.929688 111.277344 24.980469 111.183594 25.027344 111.09375 C 25.699219 109.746094 26.050781 108.363281 26.070312 106.980469 C 26.066406 106.890625 26.066406 106.800781 26.070312 106.714844 C 26.070312 106.59375 26.070312 106.476562 26.0625 106.359375 C 26.003906 105.253906 25.730469 104.285156 25.234375 103.390625 C 25.1875 103.3125 25.136719 103.226562 25.078125 103.152344 C 25 103.054688 24.894531 103.027344 24.800781 103.085938 C 24.691406 103.152344 24.664062 103.257812 24.71875 103.382812 C 24.730469 103.417969 24.753906 103.453125 24.773438 103.488281 C 25.515625 104.769531 25.773438 106.207031 25.5625 107.882812 C 25.429688 108.933594 25.097656 109.976562 24.574219 110.992188 C 24.566406 111.011719 24.558594 111.027344 24.546875 111.046875 C 24.53125 111.078125 24.511719 111.113281 24.496094 111.144531 C 24.449219 111.265625 24.484375 111.375 24.59375 111.441406 Z M 29.34375 81.679688 C 29.34375 81.5625 29.339844 81.445312 29.34375 81.328125 L 29.34375 81.25 C 29.34375 81.101562 29.34375 80.957031 29.386719 80.816406 C 29.433594 80.65625 29.414062 80.484375 29.332031 80.335938 C 29.261719 80.199219 29.15625 80.148438 28.996094 80.171875 C 28.847656 80.199219 28.699219 80.230469 28.554688 80.269531 C 28.339844 80.320312 28.117188 80.375 27.890625 80.386719 C 27.761719 80.390625 27.632812 80.414062 27.507812 80.429688 C 27.375 80.453125 27.230469 80.472656 27.09375 80.476562 C 26.492188 80.488281 25.796875 80.503906 25.117188 80.476562 L 25.019531 80.46875 C 24.738281 80.457031 24.449219 80.445312 24.183594 80.367188 C 23.980469 79.914062 23.988281 79.4375 24.191406 78.832031 L 24.210938 78.773438 C 24.304688 78.496094 24.402344 78.210938 24.675781 78.054688 C 24.773438 78.089844 24.875 78.132812 24.96875 78.179688 C 25.136719 78.253906 25.3125 78.335938 25.5 78.375 C 25.609375 78.398438 25.714844 78.382812 25.792969 78.332031 C 25.863281 78.285156 25.910156 78.214844 25.925781 78.121094 C 25.953125 77.988281 25.945312 77.875 25.898438 77.78125 C 25.746094 77.464844 25.625 77.128906 25.511719 76.800781 C 25.433594 76.582031 25.351562 76.351562 25.261719 76.128906 C 25.234375 76.054688 25.207031 75.980469 25.183594 75.910156 C 25.171875 75.871094 25.160156 75.832031 25.144531 75.789062 C 25.078125 75.597656 25.003906 75.410156 24.929688 75.222656 C 24.792969 74.871094 24.652344 74.503906 24.535156 74.136719 C 24.496094 74.023438 24.429688 73.804688 24.1875 73.804688 C 24.1875 73.804688 24.183594 73.804688 24.179688 73.804688 C 24.066406 73.808594 23.949219 73.792969 23.835938 73.777344 C 23.742188 73.765625 23.644531 73.753906 23.546875 73.75 C 23.273438 73.746094 22.996094 73.730469 22.726562 73.71875 C 22.273438 73.695312 21.804688 73.671875 21.34375 73.683594 C 21.257812 73.683594 21.175781 73.679688 21.09375 73.671875 C 21.058594 73.667969 21.023438 73.664062 20.984375 73.664062 C 20.382812 73.625 19.894531 73.617188 19.445312 73.632812 C 19.324219 73.640625 19.226562 73.691406 19.175781 73.785156 C 19.128906 73.878906 19.136719 73.992188 19.207031 74.097656 C 19.253906 74.171875 19.3125 74.265625 19.402344 74.304688 C 19.554688 74.367188 19.671875 74.476562 19.785156 74.582031 C 19.847656 74.644531 19.90625 74.703125 19.972656 74.75 C 19.933594 74.878906 19.902344 75.011719 19.871094 75.15625 C 19.855469 75.230469 19.828125 75.308594 19.804688 75.378906 C 19.765625 75.488281 19.726562 75.597656 19.714844 75.71875 C 19.699219 75.921875 19.660156 76.066406 19.589844 76.199219 C 19.527344 76.308594 19.5 76.445312 19.507812 76.554688 C 19.515625 76.714844 19.496094 76.875 19.472656 77.03125 C 19.449219 77.210938 19.425781 77.398438 19.445312 77.585938 C 19.445312 77.613281 19.449219 77.644531 19.4375 77.664062 C 19.328125 77.894531 19.359375 78.144531 19.394531 78.339844 C 19.425781 78.488281 19.429688 78.644531 19.433594 78.792969 C 19.4375 78.898438 19.4375 79.003906 19.449219 79.109375 C 19.453125 79.136719 19.453125 79.164062 19.453125 79.191406 C 19.453125 79.238281 19.453125 79.289062 19.464844 79.339844 C 19.507812 79.515625 19.550781 79.691406 19.59375 79.867188 C 19.644531 80.085938 19.699219 80.304688 19.75 80.523438 C 19.796875 80.722656 19.878906 80.914062 19.953125 81.097656 C 20.003906 81.214844 20.058594 81.339844 20.097656 81.460938 C 20.234375 81.863281 20.457031 82.210938 20.671875 82.546875 L 20.699219 82.589844 C 20.835938 82.800781 20.992188 82.996094 21.148438 83.1875 C 21.199219 83.253906 21.25 83.316406 21.304688 83.382812 C 21.5 83.632812 21.726562 83.847656 21.902344 84.007812 C 22.113281 84.199219 22.347656 84.375 22.574219 84.539062 C 22.960938 84.820312 23.394531 85.0625 23.886719 85.289062 C 24.226562 85.445312 24.605469 85.570312 25.011719 85.667969 C 25.464844 85.777344 25.9375 85.847656 26.417969 85.878906 C 26.570312 85.886719 26.722656 85.894531 26.871094 85.894531 C 27.328125 85.894531 27.804688 85.851562 28.300781 85.765625 C 28.351562 85.757812 28.398438 85.75 28.449219 85.742188 C 28.671875 85.714844 28.894531 85.683594 29.089844 85.519531 C 29.160156 85.457031 29.230469 85.378906 29.230469 85.238281 C 29.234375 84.9375 29.246094 84.609375 29.273438 84.238281 C 29.296875 83.953125 29.296875 83.664062 29.296875 83.382812 C 29.296875 83.050781 29.296875 82.707031 29.332031 82.371094 C 29.355469 82.144531 29.351562 81.910156 29.34375 81.679688 Z M 25.554688 112.535156 C 25.484375 112.625 25.421875 112.707031 25.335938 112.777344 C 25.226562 112.867188 25.214844 112.992188 25.300781 113.109375 C 25.339844 113.15625 25.390625 113.1875 25.445312 113.195312 C 25.453125 113.195312 25.457031 113.195312 25.464844 113.195312 C 25.527344 113.195312 25.59375 113.164062 25.65625 113.109375 C 25.671875 113.097656 25.679688 113.085938 25.699219 113.0625 C 26.421875 112.222656 26.832031 111.492188 27.027344 110.691406 C 27.121094 110.328125 27.210938 109.933594 27.25 109.46875 C 27.246094 109.371094 27.183594 109.269531 27.046875 109.257812 C 26.921875 109.242188 26.832031 109.328125 26.804688 109.484375 C 26.792969 109.535156 26.789062 109.585938 26.78125 109.640625 C 26.777344 109.671875 26.773438 109.707031 26.769531 109.738281 C 26.609375 110.839844 26.246094 111.710938 25.652344 112.40625 C 25.617188 112.445312 25.585938 112.492188 25.554688 112.535156 Z M 22.199219 72.109375 C 22.417969 72.253906 22.636719 72.394531 22.855469 72.539062 C 23.074219 72.679688 23.292969 72.824219 23.511719 72.964844 C 23.707031 73.09375 23.902344 73.222656 24.097656 73.347656 C 24.601562 73.679688 25.117188 74.023438 25.636719 74.347656 C 25.691406 74.386719 25.75 74.425781 25.800781 74.464844 C 25.980469 74.589844 26.167969 74.726562 26.414062 74.742188 L 26.433594 74.746094 L 26.453125 74.734375 C 26.703125 74.5625 26.808594 74.335938 26.769531 74.054688 C 26.765625 74.015625 26.769531 73.96875 26.785156 73.917969 C 26.914062 73.421875 27.058594 72.859375 27.292969 72.347656 C 27.5 71.878906 27.730469 71.429688 27.972656 71.007812 C 28.234375 70.558594 28.535156 70.15625 28.824219 69.785156 C 28.980469 69.589844 29.144531 69.421875 29.320312 69.285156 C 29.449219 69.1875 29.476562 69.199219 29.566406 69.304688 C 29.722656 69.496094 29.875 69.691406 30.023438 69.882812 L 30.09375 69.96875 C 30.332031 70.277344 30.535156 70.613281 30.734375 70.9375 C 30.828125 71.085938 30.917969 71.238281 31.015625 71.382812 C 31.1875 71.652344 31.183594 71.789062 30.996094 71.949219 C 30.96875 71.96875 30.964844 72 30.964844 72.019531 C 30.898438 72.128906 30.835938 72.242188 30.773438 72.355469 C 30.625 72.621094 30.46875 72.894531 30.273438 73.140625 C 30.1875 73.253906 30.160156 73.394531 30.199219 73.515625 C 30.242188 73.632812 30.335938 73.71875 30.464844 73.75 C 30.628906 73.789062 30.753906 73.785156 30.835938 73.734375 C 30.996094 73.644531 31.171875 73.636719 31.351562 73.628906 C 31.425781 73.625 31.5 73.625 31.570312 73.613281 C 31.753906 73.59375 31.9375 73.566406 32.125 73.542969 C 32.335938 73.515625 32.542969 73.488281 32.75 73.464844 C 32.925781 73.449219 33.097656 73.425781 33.269531 73.402344 C 33.605469 73.363281 33.953125 73.320312 34.292969 73.304688 C 34.3125 73.304688 34.328125 73.304688 34.34375 73.304688 C 34.402344 73.304688 34.476562 73.304688 34.539062 73.257812 C 34.636719 73.1875 34.730469 73.191406 34.832031 73.261719 C 34.914062 73.320312 35.042969 73.351562 35.175781 73.175781 C 35.25 73.078125 35.285156 72.960938 35.28125 72.820312 C 35.277344 72.722656 35.289062 72.644531 35.335938 72.5625 C 35.378906 72.492188 35.394531 72.414062 35.414062 72.339844 C 35.421875 72.308594 35.425781 72.28125 35.433594 72.253906 C 35.472656 72.101562 35.5 71.945312 35.527344 71.796875 C 35.539062 71.730469 35.550781 71.664062 35.566406 71.597656 L 35.578125 71.539062 C 35.636719 71.242188 35.695312 70.933594 35.8125 70.648438 C 35.828125 70.613281 35.828125 70.578125 35.824219 70.542969 C 35.824219 70.53125 35.824219 70.511719 35.824219 70.5 L 35.871094 70.269531 C 35.929688 69.984375 35.988281 69.683594 36.066406 69.394531 C 36.101562 69.277344 36.121094 69.152344 36.023438 69.027344 C 35.921875 68.914062 35.792969 68.941406 35.683594 68.96875 C 35.585938 68.992188 35.492188 69.027344 35.402344 69.066406 C 35.296875 69.105469 35.191406 69.152344 35.078125 69.171875 C 34.730469 68.671875 34.382812 68.183594 33.960938 67.75 C 33.527344 67.304688 33.015625 66.980469 32.488281 66.660156 C 31.9375 66.328125 31.339844 66.128906 30.605469 65.933594 C 30.179688 65.820312 29.703125 65.757812 29.1875 65.746094 C 28.769531 65.738281 28.386719 65.753906 28.011719 65.792969 C 27.523438 65.839844 27.019531 65.949219 26.523438 66.117188 C 25.921875 66.320312 25.4375 66.539062 25.003906 66.804688 C 24.671875 67.007812 24.324219 67.238281 24.023438 67.527344 C 23.578125 67.957031 23.253906 68.355469 23.015625 68.785156 C 22.742188 69.265625 22.515625 69.800781 22.320312 70.417969 C 22.296875 70.492188 22.269531 70.566406 22.25 70.644531 C 22.148438 70.949219 22.042969 71.269531 22.003906 71.605469 C 21.964844 71.890625 21.96875 71.957031 22.199219 72.109375 Z M 34.976562 73.652344 C 34.730469 73.792969 34.488281 73.933594 34.238281 74.074219 C 34.089844 74.15625 33.945312 74.238281 33.800781 74.324219 C 33.421875 74.550781 33.027344 74.777344 32.617188 74.953125 C 32.542969 74.984375 32.3125 75.085938 32.34375 75.328125 C 32.363281 75.480469 32.390625 75.675781 32.609375 75.785156 C 32.808594 75.882812 33.019531 75.996094 33.179688 76.148438 C 33.632812 76.578125 33.960938 76.925781 34.226562 77.277344 C 34.457031 77.578125 34.722656 77.933594 34.921875 78.324219 C 35.007812 78.492188 35.082031 78.667969 35.15625 78.839844 C 35.1875 78.914062 35.21875 78.984375 35.25 79.058594 C 35.402344 79.394531 35.453125 79.6875 35.414062 79.972656 C 34.449219 80.246094 33.496094 80.265625 32.679688 80.246094 L 32.679688 79.953125 C 32.679688 79.664062 32.679688 79.386719 32.683594 79.109375 C 32.6875 78.894531 32.5625 78.695312 32.382812 78.640625 C 32.164062 78.574219 32.050781 78.707031 31.960938 78.863281 L 31.257812 80.085938 C 31.222656 80.148438 31.1875 80.207031 31.152344 80.265625 C 31.082031 80.382812 31.003906 80.507812 30.945312 80.636719 C 30.820312 80.914062 30.65625 81.175781 30.5 81.429688 C 30.433594 81.539062 30.367188 81.644531 30.304688 81.757812 C 30.210938 81.910156 30.128906 82.066406 30.050781 82.21875 C 29.945312 82.417969 29.835938 82.628906 29.710938 82.820312 C 29.660156 82.898438 29.648438 82.980469 29.671875 83.054688 C 29.699219 83.136719 29.773438 83.203125 29.878906 83.238281 C 29.953125 83.265625 30.015625 83.289062 30.046875 83.347656 C 30.128906 83.5 30.238281 83.628906 30.351562 83.75 C 30.414062 83.824219 30.480469 83.902344 30.539062 83.980469 C 30.667969 84.160156 30.800781 84.335938 30.929688 84.515625 C 31.152344 84.816406 31.382812 85.125 31.597656 85.4375 C 31.671875 85.546875 31.753906 85.648438 31.839844 85.75 C 31.996094 85.941406 32.144531 86.125 32.242188 86.34375 C 32.28125 86.441406 32.355469 86.480469 32.421875 86.523438 C 32.4375 86.53125 32.453125 86.542969 32.46875 86.550781 C 32.511719 86.578125 32.558594 86.59375 32.609375 86.59375 C 32.652344 86.59375 32.699219 86.582031 32.742188 86.5625 C 32.835938 86.519531 32.898438 86.441406 32.910156 86.351562 C 32.914062 86.28125 32.929688 86.214844 32.941406 86.148438 C 32.960938 86.035156 32.984375 85.914062 32.976562 85.785156 L 32.972656 85.738281 C 32.96875 85.664062 32.960938 85.589844 32.988281 85.519531 C 33.058594 85.53125 33.132812 85.546875 33.214844 85.550781 C 33.265625 85.550781 33.320312 85.550781 33.371094 85.546875 C 33.523438 85.542969 33.667969 85.539062 33.800781 85.625 C 33.875 85.675781 34.015625 85.664062 34.085938 85.613281 C 34.164062 85.558594 34.246094 85.554688 34.34375 85.550781 C 34.382812 85.550781 34.421875 85.550781 34.460938 85.546875 L 34.617188 85.523438 C 34.914062 85.492188 35.222656 85.453125 35.507812 85.332031 C 35.585938 85.296875 35.664062 85.265625 35.742188 85.234375 C 35.976562 85.136719 36.21875 85.035156 36.441406 84.898438 C 37.046875 84.535156 37.5625 84.105469 38.023438 83.585938 C 38.210938 83.371094 38.367188 83.136719 38.515625 82.910156 C 38.5625 82.839844 38.609375 82.769531 38.65625 82.699219 C 38.835938 82.4375 39.085938 82.039062 39.214844 81.605469 C 39.257812 81.464844 39.304688 81.324219 39.351562 81.183594 C 39.421875 80.960938 39.492188 80.734375 39.554688 80.503906 C 39.722656 79.890625 39.753906 79.257812 39.761719 78.722656 C 39.773438 77.996094 39.710938 77.300781 39.566406 76.660156 C 39.550781 76.597656 39.539062 76.535156 39.527344 76.476562 C 39.496094 76.328125 39.464844 76.179688 39.417969 76.035156 C 39.378906 75.910156 39.328125 75.789062 39.277344 75.671875 C 39.214844 75.515625 39.144531 75.351562 39.109375 75.183594 C 39.089844 75.113281 39.070312 75.035156 39.023438 74.980469 C 38.898438 74.835938 38.820312 74.667969 38.738281 74.492188 C 38.6875 74.390625 38.636719 74.289062 38.582031 74.191406 C 38.242188 73.613281 37.90625 73.164062 37.535156 72.78125 C 37.292969 72.539062 37.058594 72.492188 36.785156 72.644531 C 36.644531 72.722656 36.496094 72.800781 36.355469 72.878906 C 36.179688 72.96875 36.007812 73.058594 35.839844 73.15625 C 35.550781 73.324219 35.265625 73.488281 34.976562 73.652344 Z M 53.664062 55.765625 C 53.605469 55.828125 53.507812 55.839844 53.363281 55.839844 C 53.160156 55.839844 52.953125 55.835938 52.742188 55.832031 C 52.578125 55.828125 52.410156 55.828125 52.246094 55.824219 C 51.988281 55.820312 51.964844 55.84375 51.9375 56.101562 L 51.769531 57.523438 C 51.671875 58.382812 51.570312 59.246094 51.46875 60.105469 C 51.398438 60.683594 51.328125 61.261719 51.257812 61.839844 C 51.167969 62.578125 51.078125 63.316406 50.992188 64.050781 C 50.921875 64.652344 50.855469 65.246094 50.789062 65.84375 C 50.738281 66.3125 50.6875 66.78125 50.632812 67.25 C 50.5625 67.863281 50.492188 68.476562 50.417969 69.085938 C 50.347656 69.699219 50.277344 70.308594 50.210938 70.921875 C 50.152344 71.441406 50.09375 71.964844 50.035156 72.488281 C 49.992188 72.886719 49.949219 73.28125 49.90625 73.675781 C 49.847656 74.207031 49.785156 74.734375 49.726562 75.261719 C 49.664062 75.789062 49.601562 76.316406 49.542969 76.847656 C 49.5 77.230469 49.457031 77.609375 49.414062 77.992188 C 49.375 78.363281 49.335938 78.730469 49.292969 79.101562 C 49.230469 79.652344 49.167969 80.199219 49.105469 80.746094 C 49.046875 81.261719 48.984375 81.78125 48.929688 82.296875 C 48.886719 82.664062 48.847656 83.03125 48.808594 83.394531 C 48.765625 83.761719 48.726562 84.128906 48.683594 84.496094 C 48.628906 84.992188 48.570312 85.480469 48.515625 85.972656 C 48.46875 86.410156 48.414062 86.84375 48.367188 87.277344 L 48.265625 88.171875 C 48.199219 88.773438 48.136719 89.375 48.066406 89.976562 C 47.996094 90.582031 47.929688 91.1875 47.859375 91.789062 L 47.75 92.730469 C 47.710938 93.101562 47.667969 93.472656 47.628906 93.84375 C 47.566406 94.390625 47.507812 94.9375 47.445312 95.484375 C 47.382812 96.023438 47.324219 96.566406 47.261719 97.105469 C 47.21875 97.464844 47.175781 97.824219 47.136719 98.183594 C 47.0625 98.835938 46.988281 99.492188 46.917969 100.148438 L 46.898438 100.324219 C 46.863281 100.625 46.828125 100.929688 46.792969 101.230469 L 46.746094 101.660156 C 46.738281 101.71875 46.730469 101.753906 46.746094 101.792969 C 47.582031 102.144531 48.199219 102.480469 48.738281 102.875 C 49.375 103.335938 49.917969 103.867188 50.410156 104.492188 C 50.882812 105.09375 51.265625 105.789062 51.5625 106.558594 C 51.835938 107.277344 52.003906 108.042969 52.066406 108.835938 C 52.128906 109.621094 52.074219 110.402344 51.902344 111.164062 C 51.109375 114.707031 48.167969 117.261719 44.585938 117.519531 C 44.390625 117.53125 44.199219 117.539062 44.011719 117.539062 C 40.386719 117.539062 37.160156 115.078125 36.199219 111.5 C 35.644531 111.46875 30.414062 111.46875 29.820312 111.496094 C 29.8125 111.585938 29.804688 111.675781 29.796875 111.765625 C 29.777344 112.023438 29.757812 112.292969 29.722656 112.558594 C 29.585938 113.773438 29.316406 114.839844 28.902344 115.820312 C 28.429688 116.941406 27.714844 117.863281 26.78125 118.550781 C 26.609375 118.679688 26.414062 118.777344 26.226562 118.871094 L 26.167969 118.902344 C 25.089844 119.453125 23.894531 119.847656 22.515625 120.113281 C 20.707031 120.457031 18.855469 120.632812 17 120.632812 C 16.6875 120.632812 16.375 120.628906 16.0625 120.621094 C 14.664062 120.574219 13.410156 120.449219 12.226562 120.238281 C 12.101562 120.21875 11.980469 120.199219 11.859375 120.179688 C 11.597656 120.140625 11.324219 120.101562 11.066406 120.027344 C 10.109375 119.761719 8.996094 119.414062 7.96875 118.851562 C 6.742188 118.171875 5.648438 117.355469 4.714844 116.421875 C 3.855469 115.554688 3.089844 114.503906 2.371094 113.210938 C 1.351562 111.371094 0.664062 109.410156 0.320312 107.382812 C 0.171875 106.5 0.09375 105.546875 0.0742188 104.308594 C 0.0273438 102.050781 0.359375 99.761719 1.089844 97.296875 C 2.132812 93.785156 3.777344 90.515625 5.980469 87.582031 C 6.554688 86.8125 7.230469 86.054688 8.105469 85.195312 L 8.136719 85.164062 C 8.160156 85.140625 8.1875 85.117188 8.207031 85.089844 C 8.203125 85.089844 8.199219 85.089844 8.195312 85.09375 C 8.1875 85.097656 8.171875 85.097656 8.164062 85.097656 C 7.371094 85.132812 6.582031 84.96875 5.753906 84.59375 C 4.566406 84.054688 3.625 83.265625 2.957031 82.25 C 2.753906 81.949219 2.59375 81.597656 2.441406 81.148438 C 2.40625 81.042969 2.402344 80.972656 2.433594 80.914062 C 2.46875 80.839844 2.546875 80.800781 2.664062 80.761719 L 2.761719 80.726562 C 3.042969 80.628906 3.328125 80.527344 3.628906 80.464844 C 4.152344 80.363281 4.695312 80.375 5.289062 80.5 C 6.164062 80.6875 7.015625 80.992188 7.820312 81.394531 C 8.054688 81.511719 8.261719 81.636719 8.464844 81.777344 L 8.453125 81.621094 C 8.4375 81.378906 8.421875 81.152344 8.402344 80.925781 C 8.335938 80.183594 8.265625 79.441406 8.199219 78.695312 L 8.167969 78.359375 C 8.085938 77.488281 8.007812 76.613281 7.929688 75.738281 C 7.898438 75.378906 7.867188 75.019531 7.835938 74.65625 C 7.808594 74.300781 7.777344 73.941406 7.746094 73.589844 C 7.699219 73.015625 7.644531 72.4375 7.59375 71.859375 C 7.539062 71.265625 7.480469 70.671875 7.429688 70.082031 C 7.390625 69.625 7.351562 69.167969 7.3125 68.710938 C 7.273438 68.253906 7.234375 67.800781 7.195312 67.347656 C 7.140625 66.75 7.085938 66.148438 7.03125 65.546875 C 6.976562 64.957031 6.925781 64.367188 6.871094 63.777344 C 6.828125 63.324219 6.792969 62.875 6.753906 62.425781 C 6.714844 61.972656 6.675781 61.523438 6.636719 61.070312 C 6.59375 60.574219 6.546875 60.078125 6.5 59.582031 C 6.4375 58.890625 6.371094 58.195312 6.3125 57.5 L 6.300781 57.3125 C 6.261719 56.84375 6.21875 56.363281 6.136719 55.894531 C 6.089844 55.628906 6.03125 55.578125 5.78125 55.578125 C 5.417969 55.578125 5.054688 55.574219 4.691406 55.574219 C 4.328125 55.570312 3.964844 55.570312 3.601562 55.570312 L 3.558594 55.570312 C 3.515625 55.570312 3.472656 55.570312 3.429688 55.566406 C 3.257812 55.554688 3.167969 55.457031 3.171875 55.289062 C 3.175781 55.070312 3.191406 54.84375 3.207031 54.625 C 3.230469 54.207031 3.246094 53.792969 3.261719 53.390625 C 3.269531 53.183594 3.277344 52.976562 3.285156 52.769531 C 3.308594 52.230469 3.339844 51.6875 3.367188 51.148438 L 3.371094 51.125 C 3.375 51.054688 3.378906 51.015625 3.34375 50.984375 C 3.289062 50.929688 3.265625 50.867188 3.265625 50.804688 C 3.265625 50.753906 3.285156 50.707031 3.324219 50.667969 L 3.339844 50.652344 C 3.417969 50.582031 3.535156 50.46875 3.6875 50.542969 C 3.792969 50.59375 3.90625 50.585938 4.023438 50.585938 C 4.054688 50.582031 4.09375 50.582031 4.125 50.582031 C 20.410156 50.585938 36.695312 50.585938 52.980469 50.582031 C 53.5 50.582031 53.535156 50.640625 53.546875 51.023438 L 53.578125 51.859375 C 53.605469 52.648438 53.636719 53.464844 53.675781 54.265625 C 53.691406 54.519531 53.699219 54.777344 53.707031 55.03125 C 53.714844 55.179688 53.71875 55.324219 53.726562 55.472656 C 53.730469 55.609375 53.722656 55.703125 53.664062 55.765625 Z M 8.808594 82.632812 C 8.519531 82.242188 8.105469 82 7.707031 81.796875 C 6.914062 81.394531 6.125 81.105469 5.289062 80.921875 C 4.628906 80.773438 3.996094 80.78125 3.363281 80.945312 C 3.199219 80.988281 3.035156 81.039062 2.910156 81.132812 C 2.902344 81.175781 2.914062 81.207031 2.929688 81.246094 C 3.089844 81.679688 3.304688 82.066406 3.582031 82.40625 C 4.421875 83.4375 5.484375 84.144531 6.738281 84.503906 C 7.464844 84.714844 8.023438 84.746094 8.550781 84.609375 C 8.578125 84.601562 8.601562 84.597656 8.628906 84.597656 C 8.6875 84.597656 8.738281 84.613281 8.777344 84.628906 C 9.105469 84.753906 9.449219 84.78125 9.796875 84.800781 C 10.46875 84.835938 11.167969 84.800781 11.929688 84.695312 C 12.699219 84.589844 13.371094 84.441406 13.988281 84.246094 C 14 84.242188 14.015625 84.238281 14.03125 84.234375 C 14.097656 84.21875 14.136719 84.207031 14.152344 84.160156 C 14.195312 84.042969 14.285156 83.984375 14.425781 83.980469 C 14.484375 83.980469 14.535156 83.953125 14.59375 83.921875 C 14.617188 83.910156 14.640625 83.902344 14.660156 83.890625 C 15.398438 83.550781 16.078125 83.019531 16.808594 82.210938 C 17.050781 81.941406 17.246094 81.632812 17.390625 81.289062 C 17.464844 81.113281 17.539062 80.90625 17.519531 80.667969 C 17.398438 80.640625 17.289062 80.660156 17.167969 80.699219 C 16.839844 80.800781 16.527344 80.933594 16.238281 81.058594 C 15.332031 81.460938 14.597656 81.949219 13.992188 82.558594 C 13.929688 82.621094 13.871094 82.6875 13.816406 82.753906 C 13.777344 82.800781 13.738281 82.847656 13.695312 82.890625 C 13.605469 82.992188 13.496094 83.011719 13.394531 82.945312 C 13.277344 82.867188 13.308594 82.753906 13.332031 82.675781 C 13.609375 81.65625 13.710938 80.707031 13.644531 79.761719 C 13.632812 79.597656 13.621094 79.4375 13.613281 79.273438 C 13.578125 78.738281 13.542969 78.183594 13.457031 77.648438 C 13.359375 77.078125 13.234375 76.40625 13.019531 75.75 C 12.949219 75.535156 12.875 75.367188 12.789062 75.222656 C 12.703125 75.082031 12.585938 74.992188 12.453125 74.980469 C 12.328125 74.964844 12.195312 75.019531 12.078125 75.132812 C 11.851562 75.363281 11.613281 75.605469 11.402344 75.871094 C 9.992188 77.636719 9.234375 79.386719 9.078125 81.222656 C 9.035156 81.714844 9.074219 82.082031 9.199219 82.410156 C 9.222656 82.484375 9.277344 82.625 9.136719 82.707031 C 9.019531 82.773438 8.890625 82.746094 8.808594 82.632812 Z M 8.636719 85.453125 C 8.484375 85.453125 8.378906 85.523438 8.25 85.652344 C 7.257812 86.609375 6.339844 87.710938 5.519531 88.929688 C 3.335938 92.171875 1.804688 95.753906 0.960938 99.582031 C 0.773438 100.421875 0.636719 101.3125 0.550781 102.230469 C 0.484375 102.929688 0.492188 103.644531 0.496094 104.332031 L 0.5 104.519531 C 0.511719 106.078125 0.71875 107.589844 1.113281 109.019531 C 1.996094 112.207031 3.519531 114.746094 5.765625 116.789062 C 6.964844 117.875 8.324219 118.6875 9.792969 119.203125 C 10.054688 119.296875 10.355469 119.402344 10.652344 119.46875 C 10.84375 119.511719 11.042969 119.546875 11.238281 119.578125 C 11.460938 119.617188 11.6875 119.65625 11.910156 119.710938 C 12.746094 119.914062 13.574219 120.046875 14.375 120.105469 C 15.324219 120.175781 16.449219 120.246094 17.578125 120.226562 C 17.746094 120.214844 17.914062 120.207031 18.078125 120.199219 C 19.703125 120.136719 21.269531 119.9375 22.742188 119.609375 C 24.292969 119.261719 25.574219 118.757812 26.648438 118.074219 L 26.714844 118.03125 C 26.785156 117.988281 26.859375 117.941406 26.921875 117.890625 C 27.335938 117.574219 27.695312 117.15625 28.019531 116.621094 C 28.726562 115.480469 29.140625 114.121094 29.332031 112.347656 C 29.421875 111.519531 29.441406 110.636719 29.398438 109.640625 C 29.359375 108.867188 29.277344 108.070312 29.140625 107.199219 C 28.925781 105.785156 28.527344 104.328125 27.855469 102.460938 L 27.761719 102.195312 C 27.609375 101.773438 27.457031 101.332031 27.269531 100.921875 C 26.988281 100.308594 26.746094 99.761719 26.53125 99.257812 C 26.074219 98.191406 25.542969 97.167969 24.953125 96.210938 C 23.867188 94.464844 22.636719 92.773438 21.191406 91.027344 C 19.449219 88.925781 17.890625 87.3125 16.28125 85.953125 C 15.742188 85.496094 15.234375 85.113281 14.722656 84.78125 C 14.621094 84.714844 14.558594 84.695312 14.457031 84.757812 C 14.289062 84.871094 14.09375 84.929688 13.90625 84.992188 C 12.890625 85.308594 11.773438 85.488281 10.484375 85.546875 L 10.3125 85.550781 C 9.8125 85.578125 9.296875 85.601562 8.800781 85.472656 C 8.738281 85.460938 8.6875 85.453125 8.636719 85.453125 Z M 28.320312 102.449219 C 28.75 103.625 29.089844 104.808594 29.332031 105.96875 C 29.449219 106.53125 29.566406 107.140625 29.632812 107.761719 L 29.660156 108.003906 C 29.707031 108.414062 29.75 108.820312 29.789062 109.230469 C 29.832031 109.6875 29.835938 110.152344 29.839844 110.597656 C 29.839844 110.710938 29.839844 110.828125 29.839844 110.941406 C 29.839844 110.960938 29.839844 110.980469 29.871094 111.007812 L 31.460938 111.007812 C 32.628906 111.027344 33.816406 111.003906 34.96875 110.984375 C 35.316406 110.976562 35.664062 110.972656 36.011719 110.964844 C 36.042969 110.964844 36.054688 110.964844 36.066406 110.960938 C 35.601562 107.90625 36.453125 105.371094 38.605469 103.417969 C 40.753906 101.46875 43.34375 100.867188 46.300781 101.621094 L 46.339844 101.285156 C 46.371094 101.011719 46.40625 100.746094 46.433594 100.484375 C 46.453125 100.316406 46.46875 100.144531 46.488281 99.976562 C 46.511719 99.746094 46.535156 99.515625 46.5625 99.285156 C 46.59375 98.976562 46.632812 98.664062 46.667969 98.351562 C 46.703125 98.050781 46.738281 97.753906 46.769531 97.457031 C 46.800781 97.195312 46.828125 96.9375 46.855469 96.679688 C 46.886719 96.390625 46.921875 96.105469 46.953125 95.816406 C 46.984375 95.511719 47.023438 95.203125 47.058594 94.898438 C 47.089844 94.59375 47.128906 94.289062 47.164062 93.984375 C 47.179688 93.828125 47.195312 93.675781 47.214844 93.523438 C 47.238281 93.285156 47.265625 93.050781 47.292969 92.8125 C 47.320312 92.566406 47.351562 92.316406 47.378906 92.070312 C 47.417969 91.734375 47.460938 91.398438 47.496094 91.0625 C 47.535156 90.726562 47.566406 90.390625 47.605469 90.050781 C 47.625 89.832031 47.652344 89.613281 47.675781 89.394531 C 47.722656 88.984375 47.769531 88.578125 47.816406 88.167969 L 47.886719 87.5625 C 47.910156 87.375 47.929688 87.183594 47.949219 86.992188 C 47.972656 86.78125 47.992188 86.574219 48.015625 86.367188 C 48.050781 86.066406 48.085938 85.769531 48.121094 85.472656 C 48.15625 85.167969 48.191406 84.867188 48.226562 84.5625 C 48.246094 84.367188 48.265625 84.171875 48.289062 83.976562 C 48.3125 83.78125 48.332031 83.585938 48.351562 83.394531 C 48.386719 83.089844 48.421875 82.792969 48.453125 82.488281 C 48.488281 82.191406 48.527344 81.890625 48.558594 81.589844 C 48.582031 81.394531 48.601562 81.199219 48.625 81.003906 C 48.644531 80.8125 48.664062 80.613281 48.6875 80.421875 C 48.71875 80.136719 48.753906 79.851562 48.785156 79.566406 C 48.820312 79.25 48.859375 78.933594 48.894531 78.613281 C 48.925781 78.335938 48.957031 78.054688 48.984375 77.777344 C 49.015625 77.5 49.046875 77.222656 49.078125 76.945312 C 49.105469 76.691406 49.136719 76.441406 49.167969 76.191406 C 49.207031 75.871094 49.246094 75.546875 49.28125 75.222656 C 49.3125 74.945312 49.34375 74.667969 49.371094 74.390625 C 49.402344 74.101562 49.433594 73.816406 49.464844 73.527344 C 49.5 73.199219 49.539062 72.867188 49.578125 72.539062 C 49.628906 72.121094 49.679688 71.699219 49.726562 71.28125 C 49.753906 71.046875 49.777344 70.808594 49.800781 70.574219 C 49.832031 70.242188 49.867188 69.894531 49.910156 69.554688 C 49.976562 69.097656 50.019531 68.628906 50.066406 68.175781 C 50.097656 67.816406 50.136719 67.449219 50.179688 67.085938 C 50.21875 66.769531 50.257812 66.449219 50.292969 66.128906 C 50.316406 65.929688 50.339844 65.730469 50.359375 65.527344 C 50.425781 64.949219 50.496094 64.371094 50.566406 63.792969 L 50.570312 63.753906 C 50.585938 63.636719 50.597656 63.523438 50.613281 63.40625 C 50.648438 63.113281 50.6875 62.804688 50.710938 62.507812 C 50.726562 62.335938 50.75 62.167969 50.769531 62.003906 C 50.804688 61.734375 50.835938 61.453125 50.84375 61.175781 L 50.84375 61.15625 L 50.855469 61.140625 C 50.863281 61.132812 50.871094 61.125 50.875 61.113281 C 50.882812 61.109375 50.890625 61.101562 50.890625 61.097656 C 50.933594 60.761719 50.972656 60.421875 51.011719 60.078125 L 51.050781 59.722656 C 51.078125 59.472656 51.109375 59.21875 51.136719 58.96875 C 51.1875 58.554688 51.242188 58.140625 51.292969 57.726562 C 51.308594 57.597656 51.328125 57.46875 51.347656 57.339844 C 51.378906 57.078125 51.417969 56.804688 51.4375 56.539062 C 51.445312 56.460938 51.457031 56.378906 51.472656 56.300781 C 51.496094 56.167969 51.519531 56.042969 51.5 55.917969 C 51.441406 55.898438 51.386719 55.898438 51.332031 55.902344 C 51.316406 55.902344 51.300781 55.902344 51.28125 55.902344 C 50.085938 55.886719 48.867188 55.886719 47.691406 55.886719 C 46.378906 55.886719 45.023438 55.882812 43.6875 55.863281 C 41.335938 55.828125 38.9375 55.828125 36.621094 55.835938 C 34.34375 55.835938 31.984375 55.839844 29.667969 55.804688 C 27.394531 55.769531 25.082031 55.773438 22.851562 55.777344 C 20.578125 55.78125 18.234375 55.789062 15.925781 55.75 C 13.785156 55.714844 11.605469 55.722656 9.496094 55.730469 C 8.617188 55.734375 7.730469 55.734375 6.847656 55.734375 C 6.832031 55.734375 6.8125 55.734375 6.796875 55.734375 C 6.742188 55.730469 6.691406 55.726562 6.65625 55.75 C 6.640625 55.789062 6.640625 55.828125 6.644531 55.878906 L 6.644531 55.898438 C 6.628906 56.085938 6.648438 56.261719 6.671875 56.449219 C 6.679688 56.542969 6.691406 56.640625 6.699219 56.734375 C 6.710938 56.988281 6.738281 57.242188 6.761719 57.488281 C 6.785156 57.753906 6.8125 58.023438 6.828125 58.296875 C 6.847656 58.667969 6.886719 59.042969 6.925781 59.40625 C 6.945312 59.59375 6.964844 59.78125 6.980469 59.964844 C 7.003906 60.210938 7.023438 60.457031 7.042969 60.703125 C 7.0625 60.949219 7.082031 61.199219 7.101562 61.445312 C 7.132812 61.78125 7.164062 62.113281 7.195312 62.449219 C 7.21875 62.671875 7.238281 62.894531 7.257812 63.113281 C 7.28125 63.359375 7.300781 63.601562 7.320312 63.847656 C 7.339844 64.097656 7.363281 64.34375 7.382812 64.589844 C 7.410156 64.867188 7.433594 65.144531 7.460938 65.417969 C 7.488281 65.691406 7.511719 65.960938 7.539062 66.234375 C 7.558594 66.453125 7.574219 66.671875 7.59375 66.890625 C 7.617188 67.171875 7.640625 67.457031 7.664062 67.738281 C 7.691406 68.003906 7.714844 68.265625 7.738281 68.527344 C 7.765625 68.800781 7.789062 69.078125 7.816406 69.355469 C 7.84375 69.644531 7.867188 69.9375 7.890625 70.226562 C 7.90625 70.445312 7.925781 70.667969 7.945312 70.886719 C 7.96875 71.15625 7.992188 71.425781 8.019531 71.695312 C 8.042969 71.964844 8.070312 72.234375 8.09375 72.503906 C 8.121094 72.761719 8.140625 73.019531 8.160156 73.277344 C 8.179688 73.53125 8.203125 73.785156 8.226562 74.035156 C 8.246094 74.292969 8.273438 74.546875 8.296875 74.800781 C 8.324219 75.058594 8.347656 75.3125 8.375 75.566406 C 8.394531 75.832031 8.417969 76.09375 8.4375 76.359375 C 8.460938 76.628906 8.480469 76.894531 8.503906 77.160156 C 8.570312 77.929688 8.644531 78.703125 8.71875 79.472656 C 8.707031 79.667969 8.742188 79.84375 8.78125 80.035156 C 8.789062 80.082031 8.800781 80.132812 8.808594 80.183594 C 8.8125 80.15625 8.820312 80.128906 8.820312 80.101562 C 8.824219 80.058594 8.832031 80.015625 8.84375 79.976562 C 9.097656 78.984375 9.4375 78.132812 9.882812 77.375 L 9.902344 77.335938 C 9.949219 77.265625 9.988281 77.199219 9.988281 77.121094 L 9.988281 77.078125 L 10.027344 77.066406 C 10.078125 77.042969 10.101562 77.011719 10.097656 76.953125 L 10.097656 76.917969 L 10.128906 76.898438 C 10.144531 76.890625 10.152344 76.875 10.164062 76.832031 L 10.167969 76.808594 L 10.1875 76.792969 C 10.207031 76.78125 10.207031 76.777344 10.210938 76.769531 L 10.214844 76.738281 L 10.246094 76.722656 C 10.257812 76.71875 10.269531 76.710938 10.269531 76.671875 L 10.269531 76.648438 L 10.464844 76.390625 C 10.941406 75.757812 11.324219 75.292969 11.710938 74.878906 C 11.972656 74.601562 12.246094 74.492188 12.570312 74.542969 L 12.59375 74.558594 C 12.644531 74.597656 12.695312 74.625 12.746094 74.65625 C 12.886719 74.738281 13.03125 74.824219 13.121094 74.992188 C 13.300781 75.324219 13.429688 75.660156 13.511719 75.996094 C 13.648438 76.554688 13.765625 77.136719 13.863281 77.71875 C 13.957031 78.277344 13.988281 78.847656 14.019531 79.394531 C 14.035156 79.660156 14.046875 79.933594 14.070312 80.199219 C 14.105469 80.628906 14.046875 81.054688 13.988281 81.464844 C 13.976562 81.566406 13.960938 81.667969 13.949219 81.769531 C 13.945312 81.808594 13.9375 81.84375 13.929688 81.878906 C 13.917969 81.933594 13.90625 81.988281 13.910156 82.046875 C 14.113281 81.867188 14.328125 81.707031 14.53125 81.550781 L 14.648438 81.464844 C 15.199219 81.082031 15.808594 80.765625 16.507812 80.496094 C 16.832031 80.367188 17.152344 80.253906 17.503906 80.210938 C 17.625 80.199219 17.722656 80.222656 17.792969 80.285156 C 17.863281 80.34375 17.90625 80.4375 17.917969 80.5625 C 17.9375 80.765625 17.929688 80.941406 17.882812 81.109375 C 17.839844 81.289062 17.761719 81.453125 17.6875 81.613281 C 17.648438 81.699219 17.609375 81.777344 17.578125 81.863281 C 16.824219 82.945312 15.882812 83.769531 14.777344 84.3125 C 14.816406 84.351562 14.859375 84.378906 14.90625 84.40625 L 14.945312 84.429688 C 15.78125 84.96875 16.617188 85.636719 17.5 86.476562 C 18.3125 87.253906 19.371094 88.296875 20.363281 89.433594 C 20.945312 90.105469 21.546875 90.796875 22.113281 91.503906 C 22.863281 92.429688 23.617188 93.453125 24.417969 94.632812 C 24.90625 95.351562 25.382812 96.113281 25.867188 96.960938 C 26.335938 97.78125 26.675781 98.46875 26.9375 99.125 C 26.976562 99.226562 27.011719 99.335938 27.046875 99.4375 C 27.09375 99.589844 27.144531 99.742188 27.214844 99.878906 C 27.628906 100.71875 28 101.582031 28.320312 102.449219 Z M 42.472656 55.332031 C 44.675781 55.363281 46.914062 55.363281 49.082031 55.359375 C 49.613281 55.359375 50.144531 55.359375 50.679688 55.359375 C 51.167969 55.359375 51.652344 55.359375 52.140625 55.363281 C 52.296875 55.363281 52.449219 55.375 52.59375 55.390625 C 52.851562 55.417969 53.058594 55.417969 53.246094 55.386719 C 53.285156 54.832031 53.148438 51.566406 53.0625 51.042969 L 3.8125 51.042969 L 3.746094 52.449219 C 3.707031 53.339844 3.664062 54.222656 3.625 55.101562 C 3.691406 55.128906 3.75 55.128906 3.8125 55.125 C 3.828125 55.125 3.847656 55.121094 3.863281 55.121094 C 5 55.132812 6.148438 55.136719 7.265625 55.140625 C 8.628906 55.140625 10.046875 55.144531 11.4375 55.167969 C 13.179688 55.195312 14.953125 55.199219 16.667969 55.199219 C 18.339844 55.199219 20.070312 55.199219 21.773438 55.226562 C 23.496094 55.253906 25.246094 55.253906 26.941406 55.253906 C 28.636719 55.253906 30.386719 55.253906 32.109375 55.28125 C 33.878906 55.308594 35.683594 55.308594 37.425781 55.3125 C 39.082031 55.3125 40.792969 55.3125 42.472656 55.332031 Z M 42.472656 55.332031 " fill-opacity="1" fill-rule="nonzero"/></g><path fill="#646273" d="M 44.121094 104.59375 C 41.375 104.59375 39.148438 106.828125 39.148438 109.585938 C 39.148438 112.34375 41.375 114.578125 44.121094 114.578125 C 46.867188 114.578125 49.089844 112.34375 49.089844 109.585938 C 49.089844 106.828125 46.863281 104.59375 44.121094 104.59375 Z M 44.121094 104.59375 " fill-opacity="1" fill-rule="nonzero"/></svg>