<svg width="1440" height="169" viewBox="0 0 1440 169" fill="none" xmlns="http://www.w3.org/2000/svg">
<g clip-path="url(#clip0_48_237)">
<circle cx="-16" cy="123" r="40" fill="#EEFFA8"/>
<circle cx="55" cy="121" r="50" fill="#EEFFA8"/>
<circle cx="105" cy="118" r="25" fill="#EEFFA8"/>
<circle cx="182" cy="121" r="70" fill="#EEFFA8"/>
<circle cx="548" cy="135" r="70" fill="#EEFFA8"/>
<circle cx="634" cy="153" r="70" fill="#EEFFA8"/>
<circle cx="729" cy="153" r="70" fill="#EEFFA8"/>
<circle cx="268" cy="123" r="40" fill="#EEFFA8"/>
<circle cx="411" cy="115" r="32" fill="#EEFFA8"/>
<circle cx="468" cy="131" r="40" fill="#EEFFA8"/>
<circle cx="337" cy="151" r="60" fill="#EEFFA8"/>
<circle cx="750" cy="123" r="30" fill="#EEFFA8"/>
<circle cx="810" cy="131" r="60" fill="#EEFFA8"/>
<circle cx="880" cy="123" r="40" fill="#EEFFA8"/>
<circle cx="951" cy="121" r="50" fill="#EEFFA8"/>
<circle cx="1001" cy="118" r="25" fill="#EEFFA8"/>
<circle cx="1078" cy="121" r="70" fill="#EEFFA8"/>
<circle cx="1164" cy="123" r="40" fill="#EEFFA8"/>
<circle cx="1307" cy="115" r="32" fill="#EEFFA8"/>
<circle cx="1364" cy="131" r="40" fill="#EEFFA8"/>
<circle cx="1433" cy="135" r="60" fill="#EEFFA8"/>
<circle cx="1233" cy="151" r="60" fill="#EEFFA8"/>
<circle cx="30" cy="153" r="30" fill="white"/>
<circle cx="90" cy="161" r="60" fill="white"/>
<circle cx="160" cy="153" r="40" fill="white"/>
<circle cx="231" cy="151" r="50" fill="white"/>
<circle cx="281" cy="148" r="25" fill="white"/>
<circle cx="358" cy="151" r="70" fill="white"/>
<circle cx="444" cy="153" r="40" fill="white"/>
<circle cx="587" cy="145" r="32" fill="white"/>
<circle cx="644" cy="161" r="40" fill="white"/>
<circle cx="513" cy="181" r="60" fill="white"/>
<circle cx="639" cy="161" r="30" fill="white"/>
<circle cx="699" cy="179" r="60" fill="white"/>
<circle cx="769" cy="161" r="40" fill="white"/>
<circle cx="840" cy="159" r="50" fill="white"/>
<circle cx="890" cy="156" r="25" fill="white"/>
<circle cx="967" cy="159" r="70" fill="white"/>
<circle cx="1053" cy="161" r="40" fill="white"/>
<circle cx="1196" cy="153" r="32" fill="white"/>
<circle cx="1253" cy="169" r="40" fill="white"/>
<circle cx="1122" cy="189" r="60" fill="white"/>
<circle cx="870" cy="181" r="30" fill="white"/>
<circle cx="930" cy="189" r="60" fill="white"/>
<circle cx="1000" cy="181" r="40" fill="white"/>
<circle cx="1071" cy="179" r="50" fill="white"/>
<circle cx="1121" cy="176" r="25" fill="white"/>
<circle cx="1198" cy="179" r="70" fill="white"/>
<circle cx="1284" cy="181" r="40" fill="white"/>
<circle cx="1428" cy="163" r="32" fill="white"/>
<circle cx="1353" cy="189" r="60" fill="white"/>
</g>
<defs>
<clipPath id="clip0_48_237">
<rect width="1440" height="169" fill="white"/>
</clipPath>
</defs>
</svg>
