<svg width="270" height="317" viewBox="0 0 270 317" fill="none" xmlns="http://www.w3.org/2000/svg">
<path d="M188 50C188 77.6142 165.614 100 138 100C110.386 100 88 77.6142 88 50C88 22.3858 110.386 0 138 0C165.614 0 188 22.3858 188 50Z" fill="white"/>
<path d="M109 167C109 194.614 90.0747 206.5 59 217C30.5 226.63 0 214.114 0 186.5C0 158.886 31.3858 117 59 117C86.6142 117 109 139.386 109 167Z" fill="white"/>
<path d="M239 106C239 133.614 206.614 160 179 160C151.386 160 129 137.614 129 110C129 82.3858 151.386 60 179 60C206.614 60 239 78.3858 239 106Z" fill="white"/>
<path d="M269.413 186.5C269.413 214.114 242.614 217 215 217C187.386 217 165 194.614 165 167C165 139.386 186.299 126 213.913 126C241.528 126 269.413 158.886 269.413 186.5Z" fill="white"/>
<path d="M147 106C147 133.614 124.614 156 97 156C69.3858 156 47 133.614 47 106C47 78.3858 69.3858 56 97 56C124.614 56 147 78.3858 147 106Z" fill="white"/>
<path d="M197.5 186.5C197.5 213.709 203.325 245.065 140.837 221.585C139.057 220.917 136.959 220.987 135.222 221.759C73.492 249.186 90.0747 204.713 90.0747 177.5C90.0747 149.886 112.46 111.5 140.075 111.5C167.689 111.5 197.5 158.886 197.5 186.5Z" fill="white"/>
<path d="M140.723 159.856C140.723 149.548 138.738 147.257 138.241 143.821C137.745 140.385 138.612 125.396 137.248 113.661C134.433 89.4335 132.78 167.109 133.773 175.89C108.454 172.836 102 162.528 102 162.528C102 162.528 108.454 181.998 133.773 181.235C133.773 187.725 133.277 316 133.277 316H140.723V193.833V185.816V165.2C166.539 159.856 172 143.821 172 143.821C172 143.821 160.085 159.856 140.723 159.856Z" fill="#121212" stroke="#121212"/>
</svg>
