<svg width="330" height="382" viewBox="0 0 330 382" fill="none" xmlns="http://www.w3.org/2000/svg">
<path d="M228.19 76.5949C228.19 108.404 202.404 134.19 170.595 134.19C138.786 134.19 109.5 108.404 109.5 76.5949C109.5 44.7861 138.786 0 170.595 0C202.404 0 228.19 44.7861 228.19 76.5949Z" fill="white"/>
<path d="M137.19 211.367C137.19 243.176 111.404 268.962 79.5949 268.962C47.7861 268.962 0.5 243.176 0.5 211.367C0.5 179.558 47.7861 153.772 79.5949 153.772C111.404 153.772 137.19 179.558 137.19 211.367Z" fill="white"/>
<path d="M303 128C303 159.809 256.214 198.696 224.405 198.696C192.596 198.696 166.81 172.91 166.81 141.101C166.81 109.292 192.596 83.5063 224.405 83.5063C256.214 83.5063 303 96.1912 303 128Z" fill="white"/>
<path d="M329.5 219C329.5 250.809 291.1 268.962 259.291 268.962C227.482 268.962 201.696 243.176 201.696 211.367C201.696 179.558 227.482 153.772 259.291 153.772C291.1 153.772 329.5 187.191 329.5 219Z" fill="white"/>
<path d="M180.962 141.101C180.962 172.91 155.176 198.696 123.367 198.696C91.5583 198.696 52.5 159.809 52.5 128C52.5 96.1912 91.5583 83.5063 123.367 83.5063C155.176 83.5063 180.962 109.292 180.962 141.101Z" fill="white"/>
<path d="M239.133 229.797C239.133 261.606 202.404 268.962 170.595 268.962C138.786 268.962 113 261.606 113 229.797C113 197.989 138.786 153.772 170.595 153.772C202.404 153.772 239.133 197.989 239.133 229.797Z" fill="white"/>
<path d="M173.732 203.137C173.732 191.264 171.444 188.625 170.873 184.667C170.301 180.71 171.3 163.444 169.729 149.926C166.486 122.018 164.582 211.493 165.726 221.607C136.561 218.089 129.126 206.216 129.126 206.216C129.126 206.216 136.561 228.644 165.726 227.764C165.726 235.24 165.154 383 165.154 383H173.732V242.276V233.041V209.294C203.469 203.137 209.759 184.667 209.759 184.667C209.759 184.667 196.035 203.137 173.732 203.137Z" fill="#121212" stroke="#121212" stroke-width="1.1519"/>
</svg>
